<?xml version="1.0" encoding="UTF-8"?><svg id="Layer_1" xmlns="http://www.w3.org/2000/svg" viewBox="0 0 284.84 59.78"><defs><style>.cls-1{fill:#5956e9;}</style></defs><path class="cls-1" d="m54.94,30.27L73.56,0h-17.56l-14.23,24.37v11.96l15.14,23.46h17.71l-19.68-29.51h0Z"/><path class="cls-1" d="m1.06,0l18.62,30.27L0,59.78h17.71l15.14-23.46v-11.96L18.62,0H1.06Z"/><path d="m80.52,40.56c-2.88-2.88-4.39-6.51-4.39-10.75s1.51-7.87,4.39-10.75,6.51-4.39,10.9-4.39,8.02,1.51,10.75,4.39c2.88,2.88,4.24,6.51,4.24,10.75v1.66h-22.25c.3,1.82,1.21,3.48,2.42,4.84,1.36,1.36,2.88,1.97,4.69,1.97,1.97,0,3.63-.61,4.99-1.66.61-.45,1.06-1.06,1.36-1.66h8.32c-.61,1.97-1.51,3.63-2.72,4.99-3.03,3.33-6.96,4.99-11.96,4.99-4.24,0-7.87-1.51-10.75-4.39h0Zm3.94-13.77h13.62c-.3-1.51-1.06-2.72-2.27-3.78s-2.72-1.51-4.39-1.51-3.18.45-4.39,1.51c-1.36.91-2.12,2.27-2.57,3.78h0Z"/><path d="m113.97,40.56c-3.03-2.88-4.54-6.51-4.54-10.75s1.51-7.87,4.54-10.75c2.88-2.88,6.66-4.39,11.05-4.39,5.3,0,9.23,1.82,11.96,5.6,1.21,1.66,2.12,3.48,2.72,5.6h-8.17c-.3-.76-.76-1.51-1.36-2.27-1.51-1.51-3.18-2.27-5.15-2.27s-3.78.91-5.3,2.42-2.12,3.63-2.12,6.05.76,4.54,2.12,6.05,3.18,2.42,5.15,2.42,3.78-.76,5.15-2.27c.61-.61,1.06-1.36,1.36-2.27h8.32c-.45,2.12-1.36,4.09-2.57,5.6-2.72,3.78-6.81,5.6-12.11,5.6-4.39,0-8.17-1.36-11.05-4.39h0Z"/><path d="m144.24,32.84V14.68h8.02v17.1c0,2.12.45,3.63,1.51,4.84,1.06,1.06,2.57,1.66,4.39,1.66s3.48-.76,4.84-2.12,1.97-3.18,1.97-5.45V14.68h8.02v30.27h-8.02v-4.69h-.3c-.45.91-1.21,1.66-2.12,2.42-2.12,1.51-4.39,2.42-6.96,2.42-3.63,0-6.36-1.06-8.48-3.03s-2.88-5.3-2.88-9.23h0Z"/><path d="m179.05,21.34v-6.66h18.01v6.66h-7.42l-.15,16.04h7.72v7.57h-14.98l.3-23.61h-3.48Z"/><path d="m205.99,40.56c-2.88-2.88-4.39-6.51-4.39-10.75s1.36-7.87,4.39-10.75c2.88-2.88,6.51-4.39,10.9-4.39s7.87,1.51,10.75,4.39,4.39,6.51,4.39,10.75-1.51,7.72-4.39,10.75c-2.88,3.03-6.51,4.39-10.75,4.39s-8.02-1.51-10.9-4.39Zm5.6-16.8c-1.36,1.51-2.12,3.63-2.12,6.05s.76,4.54,2.12,6.05,3.18,2.42,5.15,2.42,3.78-.76,5.15-2.42,2.12-3.63,2.12-6.05-.76-4.54-2.12-6.05-3.18-2.42-5.15-2.42-3.63.91-5.15,2.42Z"/><path d="m236.56,44.95V14.68h8.17v4.84h.3c.3-.91.91-1.66,1.66-2.42,1.66-1.66,3.63-2.42,6.05-2.42h3.48v7.57h-4.39c-2.27,0-3.94.61-5.15,1.66-1.21,1.21-1.82,2.72-1.82,4.69v16.35h-8.32Z"/><path d="m257.75,34.81h8.17c.3.61.61,1.36,1.21,1.82,1.21,1.21,2.88,1.82,4.99,1.82,3.18,0,4.69-.91,4.69-2.88,0-.3-.15-.61-.15-.76-.15-.3-.45-.45-.76-.61-.3-.15-.76-.3-1.06-.61-.3-.15-.91-.3-1.51-.45s-1.21-.3-1.51-.3-1.06-.15-1.82-.45-1.51-.3-1.82-.45c-5.9-1.21-8.93-4.24-8.93-8.63,0-2.42,1.06-4.39,3.18-6.21,2.12-1.66,5.15-2.57,8.78-2.57,4.99,0,8.78,1.51,11.35,4.69,1.06,1.36,1.82,2.88,2.12,4.54h-7.87c-.3-.61-.61-1.06-1.06-1.36-1.21-.91-2.72-1.36-4.54-1.36-1.36,0-2.42.15-3.03.61s-.91.91-.91,1.66c0,.3,0,.45.15.61s.3.45.45.61.45.3.61.45.61.3.91.45c.45.15.76.3,1.06.3.3.15.76.3,1.21.3.61.15.91.15,1.36.3s.91.15,1.51.3c.61.15,1.06.15,1.51.3,5.9,1.36,8.78,4.24,8.78,8.63,0,2.57-1.21,4.69-3.48,6.51s-5.45,2.72-9.38,2.72c-5.3,0-9.23-1.66-11.81-4.99-1.06-1.51-1.97-3.18-2.42-4.99h0Z"/></svg>