<?xml version="1.0" encoding="UTF-8"?>
<svg id="Layer_1" data-name="Layer 1" xmlns="http://www.w3.org/2000/svg" viewBox="0 0 804.13 145.11">
  <defs>
    <style>
      .cls-1 {
        fill: #00adb5;
      }

      .cls-2 {
        fill: #eee;
      }
    </style>
  </defs>
  <polygon class="cls-1" points="83.16 48.45 113.25 0 84.93 0 61.93 38.9 61.93 58.02 86.35 95.56 115.02 95.56 83.16 48.45"/>
  <polygon class="cls-1" points="1.77 0 31.85 48.45 0 95.56 28.67 95.56 53.08 58.02 53.08 38.9 30.07 0 1.77 0"/>
  <path class="cls-2" d="m131.74,81.66c-9.38-9.26-14.07-20.55-14.07-33.89s4.69-24.62,14.07-33.89C141.12,4.63,152.65,0,166.33,0s25.36,4.6,34.33,13.8c8.96,9.2,13.45,20.53,13.45,33.97v5.31h-70.78c.94,5.9,3.6,10.91,7.96,15.04,4.36,4.13,9.38,6.19,15.04,6.19,6.25,0,11.62-1.77,16.1-5.31,1.77-1.53,3.19-3.3,4.25-5.31h26.54c-2.01,6.02-4.95,11.33-8.85,15.93-9.44,10.62-22.12,15.93-38.04,15.93-13.69,0-25.22-4.63-34.59-13.89Zm12.47-43.62h43.35c-.95-4.72-3.34-8.7-7.17-11.95-3.83-3.24-8.52-4.87-14.07-4.87s-10.26,1.59-14.16,4.78c-3.89,3.19-6.55,7.2-7.96,12.03Z"/>
  <path class="cls-2" d="m237.91,81.66c-9.38-9.26-14.07-20.55-14.07-33.89s4.69-24.62,14.07-33.89C247.28,4.63,258.81,0,272.5,0c16.4,0,28.9,5.9,37.51,17.69,3.89,5.07,6.72,10.97,8.49,17.69h-25.66c-1.06-2.59-2.48-4.95-4.25-7.08-4.48-4.72-9.85-7.08-16.1-7.08s-11.65,2.48-16.19,7.43c-4.54,4.95-6.81,11.32-6.81,19.11s2.27,14.16,6.81,19.11c4.54,4.95,9.94,7.43,16.19,7.43s11.62-2.36,16.1-7.08c1.77-2.12,3.19-4.48,4.25-7.08h25.66c-1.65,6.84-4.37,12.74-8.14,17.69-8.61,11.8-21.23,17.69-37.87,17.69-13.69,0-25.22-4.63-34.59-13.89Z"/>
  <path class="cls-2" d="m332.66,57.51V0S357.43,0,357.43,0v53.97c0,6.61,1.62,11.65,4.87,15.13,3.24,3.48,7.81,5.22,13.71,5.22s10.91-2.24,15.04-6.73c4.13-4.48,6.19-10.2,6.19-17.16V0S422.02,0,422.02,0v95.55s-24.77,0-24.77,0v-15.04h-.88c-1.42,2.72-3.6,5.25-6.55,7.61-6.37,4.95-13.62,7.43-21.77,7.43-11.21,0-19.91-3.24-26.1-9.73-6.19-6.48-9.29-15.92-9.29-28.31Z"/>
  <path class="cls-2" d="m435.2,21.23V0h61.75v21.23h-25.48l-.8,50.43h26.54v23.89h-51.32l.8-74.32h-11.5Z"/>
  <path class="cls-2" d="m520.22,81.66c-9.44-9.26-14.16-20.55-14.16-33.89s4.72-24.62,14.16-33.89C529.66,4.63,541.46,0,555.61,0s25.8,4.63,35.3,13.89c9.49,9.26,14.24,20.56,14.24,33.89s-4.75,24.63-14.24,33.89c-9.5,9.26-21.26,13.89-35.3,13.89s-25.95-4.63-35.39-13.89Zm18.4-53c-4.6,4.95-6.9,11.32-6.9,19.11s2.3,14.16,6.9,19.11c4.6,4.95,10.26,7.43,16.99,7.43s12.39-2.48,16.99-7.43c4.6-4.95,6.9-11.32,6.9-19.11s-2.3-14.16-6.9-19.11c-4.6-4.95-10.26-7.43-16.99-7.43s-12.39,2.48-16.99,7.43Z"/>
  <path class="cls-2" d="m619.31,95.56V0h24.77v15.04h.88c1.06-2.83,2.65-5.31,4.78-7.43C654.58,2.54,660.66,0,667.97,0h10.62v23.89h-13.27c-6.73,0-11.95,1.8-15.66,5.4-3.72,3.6-5.57,8.58-5.57,14.95v51.32h-24.77Z"/>
  <path class="cls-2" d="m684.78,63.7h25.66c.82,2.12,2.12,4.07,3.89,5.84,3.77,3.78,8.96,5.66,15.57,5.66,10.03,0,15.04-2.95,15.04-8.85,0-.94-.24-1.8-.71-2.57-.47-.77-1.3-1.47-2.48-2.12-1.18-.65-2.3-1.21-3.36-1.68-1.06-.47-2.63-.97-4.69-1.5-2.07-.53-3.72-.91-4.95-1.15-1.24-.24-3.19-.65-5.84-1.24-2.65-.59-4.57-1-5.75-1.24-18.64-4.01-27.96-13.15-27.96-27.43,0-7.55,3.39-14.01,10.17-19.38C706.16,2.69,715.45,0,727.25,0c15.81,0,27.66,4.9,35.57,14.69,3.42,4.25,5.72,9.08,6.9,14.51h-24.77c-.83-1.77-1.89-3.24-3.18-4.42-3.66-2.95-8.49-4.42-14.51-4.42-4.25,0-7.37.68-9.38,2.03-2.01,1.36-3.01,3.04-3.01,5.04,0,.71.15,1.39.44,2.03.29.65.8,1.24,1.5,1.77.71.53,1.42,1,2.12,1.42.71.41,1.71.83,3.01,1.24,1.3.41,2.45.8,3.45,1.15,1,.36,2.33.71,3.98,1.06,1.65.36,3.07.65,4.25.89,1.18.24,2.71.56,4.6.97,1.89.41,3.42.74,4.6.97,18.52,4.13,27.78,13.27,27.78,27.43,0,7.9-3.66,14.75-10.97,20.53-7.32,5.78-17.23,8.67-29.73,8.67-16.75,0-29.14-5.31-37.16-15.93-3.66-4.84-6.31-10.15-7.96-15.93Z"/>
  <g>
    <path class="cls-2" d="m775.93,2.16V0h11.3v2.16h-4.52v11.59h-2.26V2.16h-4.52Z"/>
    <path class="cls-2" d="m788.8,13.76V0h3.73l3.73,8.55h.49L800.49,0h3.64v13.75h-2.26V4.13l.2-1.87h-.2l-3.63,8.35h-3.54l-3.63-8.35h-.2l.2,1.87v9.63h-2.26Z"/>
  </g>
  <g>
    <path class="cls-1" d="m353.51,137.78h-3.08l.46-2.54-.39.46c-.57.62-1.37,1.18-2.41,1.7-1.04.51-2.28.77-3.72.77-2.44,0-4.47-.83-6.09-2.49s-2.43-3.78-2.43-6.38c0-3.13,1.05-5.78,3.16-7.94,2.11-2.16,4.5-3.24,7.17-3.24,2.34,0,4.2.69,5.59,2.08.62.62,1.08,1.31,1.39,2.08l.69-3.78h3.08l-3.43,19.27Zm-7.28-16.76c-2.06,0-3.78.82-5.18,2.45-1.4,1.63-2.1,3.49-2.1,5.57,0,1.82.56,3.32,1.68,4.49s2.55,1.75,4.3,1.75c1.93,0,3.62-.76,5.09-2.29,1.46-1.53,2.2-3.46,2.2-5.8,0-1.8-.57-3.28-1.7-4.43-1.13-1.16-2.56-1.73-4.28-1.73Z"/>
    <path class="cls-1" d="m375.17,131.16h3.16c-.51,1.26-1.23,2.43-2.16,3.51-2.08,2.34-4.63,3.51-7.63,3.51-2.65,0-4.82-.83-6.51-2.49s-2.54-3.8-2.54-6.42c0-3.16,1.06-5.81,3.18-7.94s4.58-3.2,7.38-3.2c3.29,0,5.76,1.16,7.4,3.47.69,1.03,1.16,2.18,1.39,3.47h-3.12c-.26-.8-.62-1.46-1.08-2-1.16-1.36-2.75-2.04-4.78-2.04s-3.66.75-5.13,2.26c-1.46,1.5-2.2,3.42-2.2,5.76,0,1.9.59,3.42,1.77,4.55,1.18,1.13,2.63,1.7,4.35,1.7,2,0,3.69-.68,5.05-2.04.64-.64,1.13-1.34,1.46-2.08Z"/>
    <path class="cls-1" d="m397.06,131.16h3.16c-.51,1.26-1.23,2.43-2.16,3.51-2.08,2.34-4.63,3.51-7.63,3.51-2.65,0-4.82-.83-6.51-2.49s-2.54-3.8-2.54-6.42c0-3.16,1.06-5.81,3.18-7.94s4.58-3.2,7.38-3.2c3.29,0,5.76,1.16,7.4,3.47.69,1.03,1.16,2.18,1.39,3.47h-3.12c-.26-.8-.62-1.46-1.08-2-1.16-1.36-2.75-2.04-4.78-2.04s-3.66.75-5.13,2.26c-1.46,1.5-2.2,3.42-2.2,5.76,0,1.9.59,3.42,1.77,4.55,1.18,1.13,2.63,1.7,4.35,1.7,2,0,3.69-.68,5.05-2.04.64-.64,1.13-1.34,1.46-2.08Z"/>
    <path class="cls-1" d="m403.26,129.23c0-3.21,1.09-5.86,3.26-7.96,2.17-2.09,4.66-3.14,7.46-3.14s4.86.85,6.55,2.54,2.54,3.8,2.54,6.32c0,.33-.03.78-.08,1.35l-.08.77h-16.61c0,1.85.59,3.34,1.77,4.47,1.18,1.13,2.7,1.7,4.55,1.7,1.95,0,3.64-.58,5.05-1.73.64-.49,1.16-1.07,1.54-1.73h3.2c-.59,1.21-1.36,2.27-2.31,3.2-2.21,2.11-4.78,3.16-7.71,3.16-2.7,0-4.89-.84-6.59-2.52-1.7-1.68-2.54-3.82-2.54-6.42Zm3.43-2.81h13.26c-.18-1.67-.82-2.99-1.93-3.95-1.11-.96-2.56-1.45-4.36-1.45-1.62,0-3.07.51-4.36,1.52-1.28,1.02-2.16,2.31-2.62,3.87Z"/>
    <path class="cls-1" d="m433.32,110.81l-4.24,24.09h4.43l-.5,2.89h-7.52l4.74-26.98h3.08Z"/>
    <path class="cls-1" d="m436.6,129.23c0-3.21,1.09-5.86,3.26-7.96,2.17-2.09,4.66-3.14,7.46-3.14s4.86.85,6.55,2.54,2.54,3.8,2.54,6.32c0,.33-.03.78-.08,1.35l-.08.77h-16.61c0,1.85.59,3.34,1.77,4.47,1.18,1.13,2.7,1.7,4.55,1.7,1.95,0,3.64-.58,5.05-1.73.64-.49,1.16-1.07,1.54-1.73h3.2c-.59,1.21-1.36,2.27-2.31,3.2-2.21,2.11-4.78,3.16-7.71,3.16-2.7,0-4.89-.84-6.59-2.52-1.7-1.68-2.54-3.82-2.54-6.42Zm3.43-2.81h13.26c-.18-1.67-.82-2.99-1.93-3.95-1.11-.96-2.56-1.45-4.36-1.45-1.62,0-3.07.51-4.36,1.52-1.28,1.02-2.16,2.31-2.62,3.87Z"/>
    <path class="cls-1" d="m473.09,121.41h-2.93c-1.59,0-2.97.51-4.12,1.52s-1.89,2.33-2.2,3.95l-1.93,10.91h-3.08l3.39-19.27h3.08l-.46,2.62c.41-.51.89-.98,1.43-1.39,1.26-.95,2.71-1.43,4.36-1.43h3.01l-.54,3.08Z"/>
    <path class="cls-1" d="m491.63,137.78h-3.08l.46-2.54-.39.46c-.57.62-1.37,1.18-2.41,1.7-1.04.51-2.28.77-3.72.77-2.44,0-4.47-.83-6.09-2.49s-2.43-3.78-2.43-6.38c0-3.13,1.05-5.78,3.16-7.94,2.11-2.16,4.5-3.24,7.17-3.24,2.34,0,4.2.69,5.59,2.08.62.62,1.08,1.31,1.39,2.08l.69-3.78h3.08l-3.43,19.27Zm-7.28-16.76c-2.06,0-3.78.82-5.18,2.45-1.4,1.63-2.1,3.49-2.1,5.57,0,1.82.56,3.32,1.68,4.49s2.55,1.75,4.3,1.75c1.93,0,3.62-.76,5.09-2.29,1.46-1.53,2.2-3.46,2.2-5.8,0-1.8-.57-3.28-1.7-4.43-1.13-1.16-2.56-1.73-4.28-1.73Z"/>
    <path class="cls-1" d="m498.26,121.41l.5-2.89h2.5l.77-4.24h3.08l-.77,4.24h6.17l-.5,2.89h-6.17l-2.39,13.49h6.36l-.5,2.89h-9.44l2.89-16.38h-2.51Z"/>
    <path class="cls-1" d="m511.67,129.23c0-3.21,1.09-5.86,3.26-7.96,2.17-2.09,4.66-3.14,7.46-3.14s4.86.85,6.55,2.54,2.54,3.8,2.54,6.32c0,.33-.03.78-.08,1.35l-.08.77h-16.61c0,1.85.59,3.34,1.77,4.47,1.18,1.13,2.7,1.7,4.55,1.7,1.95,0,3.64-.58,5.05-1.73.64-.49,1.16-1.07,1.54-1.73h3.2c-.59,1.21-1.36,2.27-2.31,3.2-2.21,2.11-4.78,3.16-7.71,3.16-2.7,0-4.89-.84-6.59-2.52-1.7-1.68-2.54-3.82-2.54-6.42Zm3.43-2.81h13.26c-.18-1.67-.82-2.99-1.93-3.95-1.11-.96-2.56-1.45-4.36-1.45-1.62,0-3.07.51-4.36,1.52-1.28,1.02-2.16,2.31-2.62,3.87Z"/>
    <path class="cls-1" d="m547.78,137.78l-1.81-19.27h3.2l1.35,16.38h2.89l7.9-16.38h3.35l-12.8,26.59h-3.35l3.62-7.32h-4.35Z"/>
    <path class="cls-1" d="m574.18,138.17c-2.77,0-5.02-.85-6.74-2.54-1.72-1.7-2.58-3.83-2.58-6.4,0-3.16,1.06-5.8,3.18-7.92,2.12-2.12,4.67-3.18,7.65-3.18,2.78,0,5.02.85,6.75,2.54,1.72,1.7,2.58,3.83,2.58,6.4,0,3.16-1.06,5.8-3.18,7.92-2.12,2.12-4.67,3.18-7.65,3.18Zm7.78-10.95c0-1.85-.6-3.35-1.79-4.49-1.19-1.14-2.77-1.72-4.72-1.72-2.06,0-3.83.76-5.32,2.27-1.49,1.52-2.24,3.44-2.24,5.78,0,1.85.6,3.35,1.79,4.49,1.19,1.14,2.77,1.72,4.72,1.72,2.06,0,3.83-.76,5.32-2.27s2.24-3.44,2.24-5.78Z"/>
    <path class="cls-1" d="m604.51,137.78h-3.08l.42-2.5c-.39.54-.87,1.03-1.46,1.46-1.36.95-2.96,1.43-4.78,1.43-1.98,0-3.56-.48-4.76-1.45-1.19-.96-1.93-2.28-2.22-3.95-.1-.44-.15-.96-.15-1.58s.06-1.25.19-1.97l1.89-10.71h3.08l-1.89,10.71c-.08.51-.11.98-.11,1.39,0,1.16.29,2.15.89,2.97.82,1.13,2.16,1.7,4.01,1.7,1.62,0,3-.52,4.14-1.56,1.14-1.04,1.88-2.47,2.22-4.3l1.93-10.91h3.08l-3.39,19.27Z"/>
    <path class="cls-1" d="m624.48,121.41h-2.93c-1.59,0-2.97.51-4.12,1.52s-1.89,2.33-2.2,3.95l-1.93,10.91h-3.08l3.39-19.27h3.08l-.46,2.62c.41-.51.89-.98,1.43-1.39,1.26-.95,2.71-1.43,4.36-1.43h3.01l-.54,3.08Z"/>
    <path class="cls-1" d="m635.38,131.81h3.28c.2.64.55,1.22,1.04,1.73,1.16,1.16,2.74,1.73,4.74,1.73,1.36,0,2.42-.27,3.18-.81.76-.54,1.14-1.21,1.14-2,0-.26-.06-.5-.19-.73-.13-.23-.35-.46-.66-.67-.31-.22-.59-.4-.85-.54s-.66-.31-1.21-.52c-.55-.2-.97-.35-1.25-.44-.28-.09-.76-.24-1.43-.44-3.73-1.08-5.59-2.81-5.59-5.2,0-1.64.63-3.02,1.89-4.12,1.26-1.11,3.01-1.66,5.24-1.66,3.13,0,5.47.98,7.01,2.93.67.85,1.09,1.82,1.27,2.93h-3.28c-.21-.57-.51-1.05-.93-1.46-1-1-2.4-1.5-4.2-1.5-1.26,0-2.22.25-2.89.75s-1,1.07-1,1.71c0,.39.14.75.42,1.08.28.33.73.64,1.35.92.62.28,1.18.51,1.7.68.51.17,1.22.38,2.12.64,1.67.54,3.01,1.21,4.03,2.02s1.52,1.88,1.52,3.22c0,1.72-.69,3.17-2.06,4.36-1.37,1.18-3.24,1.77-5.61,1.77-3.26,0-5.74-1.05-7.44-3.16-.72-.95-1.17-2.02-1.35-3.2Z"/>
    <path class="cls-1" d="m656.27,121.41l.5-2.89h2.5l.77-4.24h3.08l-.77,4.24h6.17l-.5,2.89h-6.17l-2.39,13.49h6.36l-.5,2.89h-9.44l2.89-16.38h-2.51Z"/>
    <path class="cls-1" d="m687.33,137.78h-3.08l.46-2.54-.39.46c-.57.62-1.37,1.18-2.41,1.7-1.04.51-2.28.77-3.72.77-2.44,0-4.47-.83-6.09-2.49s-2.43-3.78-2.43-6.38c0-3.13,1.05-5.78,3.16-7.94,2.11-2.16,4.5-3.24,7.17-3.24,2.34,0,4.2.69,5.59,2.08.62.62,1.08,1.31,1.39,2.08l.69-3.78h3.08l-3.43,19.27Zm-7.28-16.76c-2.06,0-3.78.82-5.18,2.45-1.4,1.63-2.1,3.49-2.1,5.57,0,1.82.56,3.32,1.68,4.49s2.55,1.75,4.3,1.75c1.93,0,3.62-.76,5.09-2.29,1.46-1.53,2.2-3.46,2.2-5.8,0-1.8-.57-3.28-1.7-4.43-1.13-1.16-2.56-1.73-4.28-1.73Z"/>
    <path class="cls-1" d="m707.06,121.41h-2.93c-1.59,0-2.97.51-4.12,1.52s-1.89,2.33-2.2,3.95l-1.93,10.91h-3.08l3.39-19.27h3.08l-.46,2.62c.41-.51.89-.98,1.43-1.39,1.26-.95,2.71-1.43,4.36-1.43h3.01l-.54,3.08Z"/>
    <path class="cls-1" d="m708.61,121.41l.5-2.89h2.5l.77-4.24h3.08l-.77,4.24h6.17l-.5,2.89h-6.17l-2.39,13.49h6.36l-.5,2.89h-9.44l2.89-16.38h-2.51Z"/>
    <path class="cls-1" d="m738.55,137.78h-3.08l.42-2.5c-.39.54-.87,1.03-1.46,1.46-1.36.95-2.96,1.43-4.78,1.43-1.98,0-3.56-.48-4.76-1.45-1.19-.96-1.93-2.28-2.22-3.95-.1-.44-.15-.96-.15-1.58s.06-1.25.19-1.97l1.89-10.71h3.08l-1.89,10.71c-.08.51-.11.98-.11,1.39,0,1.16.29,2.15.89,2.97.82,1.13,2.16,1.7,4.01,1.7,1.62,0,3-.52,4.14-1.56,1.14-1.04,1.88-2.47,2.22-4.3l1.93-10.91h3.08l-3.39,19.27Z"/>
    <path class="cls-1" d="m747.65,118.51h3.08l-.46,2.54.42-.46c.49-.59,1.26-1.15,2.33-1.68,1.07-.53,2.32-.79,3.76-.79,2.44,0,4.47.83,6.09,2.49s2.43,3.78,2.43,6.38c0,3.14-1.05,5.78-3.16,7.94s-4.5,3.24-7.17,3.24c-2.34,0-4.2-.69-5.59-2.08-.62-.62-1.08-1.31-1.39-2.08l-1.97,11.1h-3.08l4.7-26.59Zm7.28,16.76c2.08,0,3.81-.82,5.2-2.45,1.39-1.63,2.08-3.49,2.08-5.57,0-1.82-.56-3.32-1.68-4.49-1.12-1.17-2.55-1.75-4.3-1.75-1.93,0-3.62.77-5.09,2.29s-2.2,3.46-2.2,5.8c0,1.8.56,3.28,1.7,4.43,1.13,1.16,2.56,1.73,4.28,1.73Z"/>
  </g>
</svg>