<?xml version="1.0" encoding="UTF-8"?>
<svg id="Layer_1" data-name="Layer 1" xmlns="http://www.w3.org/2000/svg" viewBox="0 0 805.49 172.55">
  <defs>
    <style>
      .cls-1 {
        fill: #00adb5;
      }

      .cls-2 {
        fill: #222831;
      }
    </style>
  </defs>
  <polygon class="cls-1" points="105.54 73.98 133.64 28.72 107.19 28.72 85.7 65.06 85.7 82.91 108.51 117.97 135.29 117.97 105.54 73.98"/>
  <polygon class="cls-1" points="29.5 28.72 57.61 73.98 27.85 117.97 54.63 117.97 77.43 82.91 77.43 65.06 55.95 28.72 29.5 28.72"/>
  <path class="cls-2" d="m150.91,105c-8.76-8.65-13.14-19.2-13.14-31.65s4.38-23,13.14-31.65c8.76-8.65,19.53-12.97,32.31-12.97s23.69,4.3,32.07,12.89c8.37,8.59,12.56,19.17,12.56,31.74v4.96h-66.12c.88,5.51,3.36,10.19,7.44,14.05,4.08,3.86,8.76,5.79,14.05,5.79,5.84,0,10.85-1.65,15.04-4.96,1.65-1.43,2.98-3.08,3.97-4.96h24.79c-1.88,5.62-4.63,10.58-8.26,14.88-8.82,9.92-20.66,14.88-35.54,14.88-12.78,0-23.55-4.32-32.31-12.97Zm11.65-40.74h40.5c-.88-4.41-3.12-8.13-6.69-11.16-3.58-3.03-7.96-4.54-13.14-4.54s-9.59,1.49-13.22,4.46c-3.64,2.98-6.12,6.72-7.44,11.24Z"/>
  <path class="cls-2" d="m250.08,105c-8.76-8.65-13.14-19.2-13.14-31.65s4.38-23,13.14-31.65c8.76-8.65,19.53-12.97,32.31-12.97,15.32,0,27,5.51,35.04,16.53,3.64,4.74,6.28,10.25,7.93,16.53h-23.97c-.99-2.42-2.31-4.63-3.97-6.61-4.19-4.41-9.2-6.61-15.04-6.61s-10.88,2.31-15.12,6.94c-4.24,4.63-6.36,10.58-6.36,17.85s2.12,13.22,6.36,17.85c4.24,4.63,9.28,6.94,15.12,6.94s10.85-2.2,15.04-6.61c1.65-1.98,2.98-4.19,3.97-6.61h23.97c-1.54,6.39-4.08,11.9-7.6,16.53-8.04,11.02-19.84,16.53-35.37,16.53-12.78,0-23.55-4.32-32.31-12.97Z"/>
  <path class="cls-2" d="m338.59,82.44V28.72s23.14,0,23.14,0v50.41c0,6.17,1.51,10.88,4.55,14.13,3.03,3.25,7.3,4.88,12.81,4.88s10.19-2.09,14.05-6.28c3.86-4.19,5.79-9.53,5.79-16.03V28.72s23.14,0,23.14,0v89.26s-23.14,0-23.14,0v-14.05h-.83c-1.32,2.54-3.36,4.91-6.12,7.11-5.95,4.63-12.73,6.94-20.33,6.94-10.47,0-18.6-3.03-24.38-9.09-5.79-6.06-8.68-14.88-8.68-26.45Z"/>
  <path class="cls-2" d="m434.38,48.55v-19.83h57.69v19.83h-23.8l-.74,47.11h24.79v22.32h-47.93l.74-69.42h-10.74Z"/>
  <path class="cls-2" d="m513.8,105c-8.82-8.65-13.22-19.2-13.22-31.65s4.41-23,13.22-31.65c8.81-8.65,19.84-12.97,33.06-12.97s24.1,4.33,32.98,12.97c8.87,8.65,13.31,19.2,13.31,31.65s-4.44,23-13.31,31.65c-8.87,8.65-19.86,12.97-32.98,12.97s-24.24-4.32-33.06-12.97Zm17.19-49.5c-4.3,4.63-6.45,10.58-6.45,17.85s2.15,13.22,6.45,17.85c4.3,4.63,9.59,6.94,15.87,6.94s11.57-2.31,15.87-6.94c4.3-4.63,6.45-10.58,6.45-17.85s-2.15-13.22-6.45-17.85c-4.3-4.63-9.59-6.94-15.87-6.94s-11.57,2.31-15.87,6.94Z"/>
  <path class="cls-2" d="m606.36,117.97V28.72h23.14v14.05h.83c.99-2.64,2.48-4.96,4.46-6.94,4.52-4.74,10.19-7.11,17.03-7.11h9.92v22.32h-12.4c-6.28,0-11.16,1.68-14.63,5.04-3.47,3.36-5.21,8.02-5.21,13.97v47.93h-23.14Z"/>
  <path class="cls-2" d="m667.52,88.22h23.97c.77,1.98,1.98,3.8,3.64,5.46,3.52,3.53,8.37,5.29,14.55,5.29,9.37,0,14.05-2.75,14.05-8.26,0-.88-.22-1.68-.66-2.4-.44-.71-1.21-1.38-2.31-1.98-1.1-.6-2.15-1.13-3.14-1.57-.99-.44-2.45-.91-4.38-1.4-1.93-.5-3.47-.85-4.63-1.07-1.16-.22-2.98-.6-5.45-1.16-2.48-.55-4.27-.93-5.37-1.16-17.41-3.74-26.12-12.29-26.12-25.62,0-7.05,3.17-13.08,9.5-18.1,6.33-5.01,15.01-7.52,26.03-7.52,14.77,0,25.84,4.57,33.22,13.72,3.19,3.97,5.34,8.49,6.45,13.55h-23.14c-.77-1.65-1.76-3.03-2.97-4.13-3.42-2.75-7.93-4.13-13.55-4.13-3.97,0-6.89.63-8.76,1.9-1.87,1.27-2.81,2.84-2.81,4.71,0,.66.14,1.3.41,1.9.27.61.74,1.16,1.41,1.65.66.5,1.32.94,1.98,1.32.66.39,1.6.77,2.81,1.16,1.21.39,2.29.75,3.22,1.07.93.33,2.17.66,3.72.99,1.54.33,2.86.61,3.97.83,1.1.22,2.53.52,4.3.91,1.76.39,3.19.69,4.3.91,17.3,3.86,25.95,12.4,25.95,25.62,0,7.38-3.42,13.78-10.25,19.17-6.83,5.4-16.09,8.1-27.77,8.1-15.65,0-27.22-4.96-34.71-14.88-3.42-4.52-5.9-9.48-7.44-14.88Z"/>
  <g>
    <path class="cls-2" d="m752.66,30.74v-2.02h10.56v2.02h-4.22v10.83h-2.11v-10.83h-4.22Z"/>
    <path class="cls-2" d="m764.68,41.57v-12.85h3.49l3.49,7.98h.46l3.49-7.98h3.4v12.85h-2.11v-8.99l.18-1.74h-.18l-3.4,7.8h-3.3l-3.4-7.8h-.18l.18,1.74v8.99h-2.11Z"/>
  </g>
  <g>
    <path class="cls-1" d="m358.07,157.42h-2.88l.43-2.38-.36.43c-.53.58-1.28,1.1-2.25,1.58-.97.48-2.13.72-3.47.72-2.28,0-4.18-.77-5.69-2.32s-2.27-3.53-2.27-5.96c0-2.93.98-5.4,2.95-7.42,1.97-2.02,4.2-3.02,6.7-3.02,2.18,0,3.92.65,5.22,1.94.58.58,1.01,1.22,1.3,1.94l.65-3.53h2.88l-3.2,18Zm-6.8-15.66c-1.92,0-3.53.76-4.84,2.29-1.31,1.52-1.96,3.26-1.96,5.2,0,1.7.52,3.1,1.57,4.19s2.38,1.64,4.01,1.64c1.8,0,3.38-.71,4.75-2.14,1.37-1.43,2.05-3.23,2.05-5.42,0-1.68-.53-3.06-1.58-4.14-1.06-1.08-2.39-1.62-4-1.62Z"/>
    <path class="cls-1" d="m378.3,151.23h2.95c-.48,1.18-1.15,2.27-2.02,3.28-1.94,2.18-4.32,3.28-7.13,3.28-2.47,0-4.5-.77-6.08-2.32s-2.38-3.55-2.38-5.99c0-2.95.99-5.42,2.97-7.42s4.28-2.99,6.89-2.99c3.07,0,5.38,1.08,6.91,3.24.65.96,1.08,2.04,1.3,3.24h-2.92c-.24-.74-.58-1.37-1.01-1.87-1.08-1.27-2.57-1.91-4.46-1.91s-3.42.7-4.79,2.11c-1.37,1.4-2.05,3.2-2.05,5.38,0,1.78.55,3.19,1.66,4.25,1.1,1.06,2.46,1.58,4.07,1.58,1.87,0,3.44-.64,4.72-1.91.6-.6,1.06-1.25,1.37-1.94Z"/>
    <path class="cls-1" d="m398.75,151.23h2.95c-.48,1.18-1.15,2.27-2.02,3.28-1.94,2.18-4.32,3.28-7.13,3.28-2.47,0-4.5-.77-6.08-2.32s-2.38-3.55-2.38-5.99c0-2.95.99-5.42,2.97-7.42s4.28-2.99,6.89-2.99c3.07,0,5.38,1.08,6.91,3.24.65.96,1.08,2.04,1.3,3.24h-2.92c-.24-.74-.58-1.37-1.01-1.87-1.08-1.27-2.57-1.91-4.46-1.91s-3.42.7-4.79,2.11c-1.37,1.4-2.05,3.2-2.05,5.38,0,1.78.55,3.19,1.66,4.25,1.1,1.06,2.46,1.58,4.07,1.58,1.87,0,3.44-.64,4.72-1.91.6-.6,1.06-1.25,1.37-1.94Z"/>
    <path class="cls-1" d="m404.54,149.43c0-3,1.01-5.48,3.04-7.43,2.03-1.96,4.35-2.93,6.97-2.93s4.54.79,6.12,2.38,2.38,3.55,2.38,5.9c0,.31-.02.73-.07,1.26l-.07.72h-15.52c0,1.73.55,3.12,1.66,4.18,1.1,1.06,2.52,1.58,4.25,1.58,1.82,0,3.4-.54,4.72-1.62.6-.46,1.08-1,1.44-1.62h2.99c-.55,1.13-1.27,2.12-2.16,2.99-2.06,1.97-4.46,2.95-7.2,2.95-2.52,0-4.57-.79-6.16-2.36-1.58-1.57-2.38-3.57-2.38-5.99Zm3.2-2.63h12.38c-.17-1.56-.77-2.79-1.8-3.69-1.03-.9-2.39-1.35-4.07-1.35-1.51,0-2.87.47-4.07,1.42-1.2.95-2.02,2.15-2.45,3.62Z"/>
    <path class="cls-1" d="m432.62,132.22l-3.96,22.5h4.14l-.47,2.7h-7.02l4.43-25.2h2.88Z"/>
    <path class="cls-1" d="m435.68,149.43c0-3,1.01-5.48,3.04-7.43,2.03-1.96,4.35-2.93,6.97-2.93s4.54.79,6.12,2.38,2.38,3.55,2.38,5.9c0,.31-.02.73-.07,1.26l-.07.72h-15.52c0,1.73.55,3.12,1.66,4.18,1.1,1.06,2.52,1.58,4.25,1.58,1.82,0,3.4-.54,4.72-1.62.6-.46,1.08-1,1.44-1.62h2.99c-.55,1.13-1.27,2.12-2.16,2.99-2.06,1.97-4.46,2.95-7.2,2.95-2.52,0-4.57-.79-6.16-2.36-1.58-1.57-2.38-3.57-2.38-5.99Zm3.2-2.63h12.38c-.17-1.56-.77-2.79-1.8-3.69-1.03-.9-2.39-1.35-4.07-1.35-1.51,0-2.87.47-4.07,1.42-1.2.95-2.02,2.15-2.45,3.62Z"/>
    <path class="cls-1" d="m469.78,142.12h-2.74c-1.49,0-2.77.47-3.85,1.42s-1.76,2.18-2.05,3.69l-1.8,10.19h-2.88l3.17-18h2.88l-.43,2.45c.38-.48.83-.91,1.33-1.3,1.18-.89,2.53-1.33,4.07-1.33h2.81l-.5,2.88Z"/>
    <path class="cls-1" d="m487.09,157.42h-2.88l.43-2.38-.36.43c-.53.58-1.28,1.1-2.25,1.58-.97.48-2.13.72-3.47.72-2.28,0-4.18-.77-5.69-2.32s-2.27-3.53-2.27-5.96c0-2.93.98-5.4,2.95-7.42,1.97-2.02,4.2-3.02,6.7-3.02,2.18,0,3.92.65,5.22,1.94.58.58,1.01,1.22,1.3,1.94l.65-3.53h2.88l-3.2,18Zm-6.8-15.66c-1.92,0-3.53.76-4.84,2.29-1.31,1.52-1.96,3.26-1.96,5.2,0,1.7.52,3.1,1.57,4.19s2.38,1.64,4.01,1.64c1.8,0,3.38-.71,4.75-2.14,1.37-1.43,2.05-3.23,2.05-5.42,0-1.68-.53-3.06-1.58-4.14-1.06-1.08-2.39-1.62-4-1.62Z"/>
    <path class="cls-1" d="m493.28,142.12l.47-2.7h2.34l.72-3.96h2.88l-.72,3.96h5.76l-.47,2.7h-5.76l-2.23,12.6h5.94l-.47,2.7h-8.82l2.7-15.3h-2.34Z"/>
    <path class="cls-1" d="m505.81,149.43c0-3,1.01-5.48,3.04-7.43,2.03-1.96,4.35-2.93,6.97-2.93s4.54.79,6.12,2.38,2.38,3.55,2.38,5.9c0,.31-.02.73-.07,1.26l-.07.72h-15.52c0,1.73.55,3.12,1.66,4.18,1.1,1.06,2.52,1.58,4.25,1.58,1.82,0,3.4-.54,4.72-1.62.6-.46,1.08-1,1.44-1.62h2.99c-.55,1.13-1.27,2.12-2.16,2.99-2.06,1.97-4.46,2.95-7.2,2.95-2.52,0-4.57-.79-6.16-2.36-1.58-1.57-2.38-3.57-2.38-5.99Zm3.2-2.63h12.38c-.17-1.56-.77-2.79-1.8-3.69-1.03-.9-2.39-1.35-4.07-1.35-1.51,0-2.87.47-4.07,1.42-1.2.95-2.02,2.15-2.45,3.62Z"/>
    <path class="cls-1" d="m539.54,157.42l-1.69-18h2.99l1.26,15.3h2.7l7.38-15.3h3.13l-11.95,24.84h-3.13l3.38-6.84h-4.07Z"/>
    <path class="cls-1" d="m564.2,157.78c-2.59,0-4.69-.79-6.3-2.38-1.61-1.58-2.41-3.58-2.41-5.98,0-2.95.99-5.42,2.97-7.4,1.98-1.98,4.36-2.97,7.15-2.97,2.59,0,4.69.79,6.3,2.38,1.61,1.58,2.41,3.58,2.41,5.98,0,2.95-.99,5.42-2.97,7.4-1.98,1.98-4.36,2.97-7.15,2.97Zm7.27-10.22c0-1.73-.56-3.13-1.67-4.19-1.12-1.07-2.59-1.6-4.41-1.6-1.92,0-3.58.71-4.97,2.12-1.39,1.42-2.09,3.22-2.09,5.4,0,1.73.56,3.13,1.67,4.19,1.12,1.07,2.59,1.6,4.41,1.6,1.92,0,3.58-.71,4.97-2.12s2.09-3.22,2.09-5.4Z"/>
    <path class="cls-1" d="m592.53,157.42h-2.88l.4-2.34c-.36.5-.82.96-1.37,1.37-1.27.89-2.76,1.33-4.46,1.33-1.85,0-3.33-.45-4.45-1.35-1.12-.9-1.81-2.13-2.07-3.69-.1-.41-.14-.9-.14-1.48s.06-1.16.18-1.84l1.76-10.01h2.88l-1.76,10.01c-.07.48-.11.91-.11,1.3,0,1.08.28,2,.83,2.77.77,1.06,2.02,1.58,3.74,1.58,1.51,0,2.8-.49,3.87-1.46,1.07-.97,1.76-2.31,2.07-4.01l1.8-10.19h2.88l-3.17,18Z"/>
    <path class="cls-1" d="m611.18,142.12h-2.74c-1.49,0-2.77.47-3.85,1.42s-1.76,2.18-2.05,3.69l-1.8,10.19h-2.88l3.17-18h2.88l-.43,2.45c.38-.48.83-.91,1.33-1.3,1.18-.89,2.53-1.33,4.07-1.33h2.81l-.5,2.88Z"/>
    <path class="cls-1" d="m621.37,151.84h3.06c.19.6.52,1.14.97,1.62,1.08,1.08,2.56,1.62,4.43,1.62,1.27,0,2.26-.25,2.97-.76.71-.5,1.06-1.13,1.06-1.87,0-.24-.06-.47-.18-.68-.12-.22-.32-.43-.61-.63-.29-.2-.55-.37-.79-.5s-.62-.29-1.13-.49c-.52-.19-.91-.33-1.17-.41-.26-.08-.71-.22-1.33-.41-3.48-1.01-5.22-2.63-5.22-4.86,0-1.54.59-2.82,1.76-3.85,1.18-1.03,2.81-1.55,4.9-1.55,2.93,0,5.11.91,6.55,2.74.62.79,1.02,1.7,1.19,2.74h-3.06c-.19-.53-.48-.98-.86-1.37-.94-.94-2.24-1.4-3.92-1.4-1.18,0-2.08.23-2.7.7s-.94,1-.94,1.6c0,.36.13.7.4,1.01.26.31.68.6,1.26.86.58.26,1.1.47,1.58.63.48.16,1.14.35,1.98.59,1.56.5,2.81,1.13,3.76,1.89s1.42,1.76,1.42,3.01c0,1.61-.64,2.96-1.93,4.07-1.28,1.1-3.03,1.66-5.24,1.66-3.05,0-5.36-.98-6.95-2.95-.67-.89-1.09-1.88-1.26-2.99Z"/>
    <path class="cls-1" d="m640.88,142.12l.47-2.7h2.34l.72-3.96h2.88l-.72,3.96h5.76l-.47,2.7h-5.76l-2.23,12.6h5.94l-.47,2.7h-8.82l2.7-15.3h-2.34Z"/>
    <path class="cls-1" d="m669.9,157.42h-2.88l.43-2.38-.36.43c-.53.58-1.28,1.1-2.25,1.58-.97.48-2.13.72-3.47.72-2.28,0-4.18-.77-5.69-2.32s-2.27-3.53-2.27-5.96c0-2.93.98-5.4,2.95-7.42,1.97-2.02,4.2-3.02,6.7-3.02,2.18,0,3.92.65,5.22,1.94.58.58,1.01,1.22,1.3,1.94l.65-3.53h2.88l-3.2,18Zm-6.8-15.66c-1.92,0-3.53.76-4.84,2.29-1.31,1.52-1.96,3.26-1.96,5.2,0,1.7.52,3.1,1.57,4.19s2.38,1.64,4.01,1.64c1.8,0,3.38-.71,4.75-2.14,1.37-1.43,2.05-3.23,2.05-5.42,0-1.68-.53-3.06-1.58-4.14-1.06-1.08-2.39-1.62-4-1.62Z"/>
    <path class="cls-1" d="m688.33,142.12h-2.74c-1.49,0-2.77.47-3.85,1.42s-1.76,2.18-2.05,3.69l-1.8,10.19h-2.88l3.17-18h2.88l-.43,2.45c.38-.48.83-.91,1.33-1.3,1.18-.89,2.53-1.33,4.07-1.33h2.81l-.5,2.88Z"/>
    <path class="cls-1" d="m689.77,142.12l.47-2.7h2.34l.72-3.96h2.88l-.72,3.96h5.76l-.47,2.7h-5.76l-2.23,12.6h5.94l-.47,2.7h-8.82l2.7-15.3h-2.34Z"/>
    <path class="cls-1" d="m717.74,157.42h-2.88l.4-2.34c-.36.5-.82.96-1.37,1.37-1.27.89-2.76,1.33-4.46,1.33-1.85,0-3.33-.45-4.45-1.35-1.12-.9-1.81-2.13-2.07-3.69-.1-.41-.14-.9-.14-1.48s.06-1.16.18-1.84l1.76-10.01h2.88l-1.76,10.01c-.07.48-.11.91-.11,1.3,0,1.08.28,2,.83,2.77.77,1.06,2.02,1.58,3.74,1.58,1.51,0,2.8-.49,3.87-1.46,1.07-.97,1.76-2.31,2.07-4.01l1.8-10.19h2.88l-3.17,18Z"/>
    <path class="cls-1" d="m726.24,139.42h2.88l-.43,2.38.4-.43c.46-.55,1.18-1.07,2.18-1.57,1-.49,2.17-.74,3.51-.74,2.28,0,4.18.77,5.69,2.32s2.27,3.53,2.27,5.96c0,2.93-.98,5.4-2.95,7.42s-4.2,3.02-6.7,3.02c-2.18,0-3.92-.65-5.22-1.94-.58-.58-1.01-1.22-1.3-1.94l-1.84,10.37h-2.88l4.39-24.84Zm6.8,15.66c1.94,0,3.56-.76,4.86-2.29,1.3-1.52,1.94-3.26,1.94-5.2,0-1.7-.52-3.1-1.57-4.19-1.04-1.09-2.38-1.64-4.01-1.64-1.8,0-3.38.71-4.75,2.14s-2.05,3.23-2.05,5.42c0,1.68.53,3.06,1.58,4.14,1.06,1.08,2.39,1.62,4,1.62Z"/>
  </g>
</svg>
