<?xml version="1.0" encoding="UTF-8"?>
<svg id="Layer_1" data-name="Layer 1" xmlns="http://www.w3.org/2000/svg" viewBox="0 0 200 200">
  <defs>
    <style>
      .cls-1 {
        fill: #222831;
      }

      .cls-2 {
        fill: #00adb5;
        opacity: .4;
      }
    </style>
  </defs>
  <circle class="cls-2" cx="100" cy="100" r="94.34"/>
  <g>
    <path class="cls-1" d="m131.57,88.24c-2.12,0-4.08,0-6.03,0-3,0-6,0-9,0-3.21,0-4.67,1.45-4.69,4.62,0,.38-.03.75-.05,1.25-2.32,0-4.58,0-6.84,0-3.54,0-5.02,1.46-4.88,5,.3,7.31,2.93,13.68,7.89,19.07.41.44.83.88,1.37,1.44h-47.22c.73-1.78,1.59-3.56,2.18-5.43.33-1.03.28-2.2.28-3.31.02-14.42.01-28.85.01-43.27,0-2.54.5-3.04,3.05-3.04,20.31,0,40.62,0,60.93,0,2.48,0,3.01.52,3.01,2.96,0,6.42,0,12.85,0,19.27v1.44Zm-47.28,0c3.77,0,7.54,0,11.31,0,2.86,0,4.45-1.58,4.45-4.41,0-3.65,0-7.31,0-10.96,0-2.72-1.55-4.33-4.27-4.34-7.65-.02-15.3-.02-22.96,0-2.72,0-4.26,1.59-4.28,4.34-.02,3.65-.02,7.31,0,10.96.02,2.85,1.6,4.41,4.45,4.41,3.77,0,7.54,0,11.31,0Zm-.92,3.93c-3.49,0-6.99,0-10.48,0-1.48,0-2.35.72-2.37,1.92-.02,1.19.88,2,2.31,2,6.99,0,13.98,0,20.96,0,1.42,0,2.34-.82,2.32-2-.02-1.18-.91-1.92-2.37-1.93-3.46,0-6.91,0-10.37,0Zm-4.08,11.8c2.19,0,4.38,0,6.57,0,1.44,0,2.36-.77,2.37-1.94.01-1.17-.92-1.98-2.34-1.98-4.34,0-8.68,0-13.02,0-1.45,0-2.35.76-2.36,1.95-.01,1.19.89,1.97,2.33,1.98,2.15.01,4.3,0,6.45,0Z"/>
    <path class="cls-1" d="m111.85,60.63h-1.62c-14.23,0-28.47,0-42.7,0-4.57,0-6.89,2.31-6.89,6.87,0,14.62,0,29.23,0,43.85,0,4.04-2.12,7.05-5.61,8.06-4.88,1.41-9.81-2.29-10.11-7.6-.02-.42-.02-.85-.02-1.27,0-20.89,0-41.77,0-62.66,0-2.46.53-2.99,2.96-2.99,8.73,0,17.46.01,26.2-.02,1.09,0,1.9.33,2.65,1.11,1.57,1.64,3.21,3.21,4.8,4.83,1.31,1.33,2.87,1.97,4.75,1.96,7.62-.03,15.23-.01,22.85-.01,2.15,0,2.74.6,2.75,2.73,0,1.65,0,3.3,0,5.14Z"/>
    <path class="cls-1" d="m115.79,106.39c0-3.88,0-7.77,0-11.65,0-1.91.66-2.56,2.57-2.57,7.5,0,14.99,0,22.49,0,1.89,0,2.55.66,2.55,2.58,0,7.46.04,14.92,0,22.37-.04,7.11-4.49,12.67-11.22,14.14-7.47,1.63-15.26-3.9-16.19-11.51-.12-.95-.17-1.91-.18-2.87-.02-3.5,0-7,0-10.49Zm7.88,6.53h0c0-1.58.02-3.15,0-4.73-.02-1.41-.75-2.21-1.95-2.21-1.19,0-1.97.81-1.98,2.2-.03,3.23-.09,6.46.02,9.68.17,5.33,4.12,9.42,9.23,9.69,1.53.08,2.41-.51,2.54-1.7.13-1.25-.67-2.06-2.21-2.22-3.44-.36-5.56-2.63-5.63-6.11-.03-1.54,0-3.07,0-4.61Zm-.02-13.82c0-.38.03-.77,0-1.15-.1-1.08-.84-1.79-1.85-1.83-1-.04-1.83.63-2.01,1.68-.07.41-.05.84-.06,1.26,0,1.96.64,2.91,1.96,2.93,1.35.02,1.98-.91,1.96-2.88Z"/>
    <path class="cls-1" d="m115.91,155.13c-.86-5.04,2.6-8,6.53-7.85,4.8.19,9.61.18,14.41,0,3.75-.14,7.29,2.76,6.4,7.84h-27.35Z"/>
    <path class="cls-1" d="m111.8,98.07v18.3c-.34-.29-.6-.47-.81-.7-3.93-4.25-6.28-9.22-6.85-15-.17-1.71.55-2.56,2.24-2.59,1.76-.03,3.52,0,5.42,0Z"/>
    <path class="cls-1" d="m147.38,116.32v-18.19c2.06,0,4.08-.07,6.1.03,1,.05,1.53.82,1.61,1.81.34,4.53-3.78,13.34-7.71,16.34Z"/>
    <path class="cls-1" d="m133.47,135.32v8h-7.75v-8h7.75Z"/>
    <path class="cls-1" d="m72.55,84.21v-11.63h23.5v11.63h-23.5Z"/>
  </g>
</svg>