<svg width="154" height="44" viewBox="0 0 154 44" fill="none" xmlns="http://www.w3.org/2000/svg">
<path d="M40.0515 0H47.0593V43.7989H40.0515V0ZM71.5868 29.8271C71.5868 36.5301 65.9507 37.0644 64.2741 37.0644C60.0851 37.0644 59.323 33.1435 59.323 30.7784V14.0157H52.3152V30.7433C52.3152 34.8955 53.6187 38.3223 55.9032 40.6069C57.9215 42.6269 60.9454 43.7306 64.2215 43.7306C66.5446 43.7306 69.8348 43.0071 71.5868 41.4075V43.7989H78.5946V14.0157H71.5868V29.8271ZM92.6102 3.50391H85.6024V14.0157H80.3465V21.0235H85.6024V43.7989H92.6102V21.0235H97.8661V14.0157H92.6102V3.50391ZM119.936 34.8937C118.41 36.2655 116.395 37.0259 114.184 37.0259C109.31 37.0259 105.731 33.4466 105.731 28.5324C105.731 23.6181 109.196 20.1896 114.184 20.1896C116.356 20.1896 118.41 20.9131 119.974 22.2849L121.037 23.1994L125.763 18.4761L124.58 17.4092C121.8 14.8986 118.108 13.4901 114.182 13.4901C105.422 13.4901 99.0609 19.8111 99.0609 28.4956C99.0609 37.1432 105.575 43.6903 114.182 43.6903C118.182 43.6903 121.912 42.2817 124.657 39.7309L125.799 38.6639L121.001 33.9442L119.936 34.8937ZM150.775 16.6121C148.757 14.5938 146.392 13.4901 143.116 13.4901C140.793 13.4901 138.161 14.2136 136.409 15.8114V0H129.401V43.7989H136.409V27.3919C136.409 20.6889 141.171 20.1563 142.848 20.1563C147.037 20.1563 146.921 24.0789 146.921 26.4405V43.7989H153.929V26.4773C153.929 22.3252 153.062 18.8984 150.775 16.6121Z" fill="white"/>
<path d="M113.953 23.5439C115.296 23.5439 116.585 24.0778 117.535 25.0279C118.485 25.9781 119.019 27.2668 119.019 28.6106C119.019 29.9544 118.485 31.2431 117.535 32.1933C116.585 33.1435 115.296 33.6773 113.953 33.6773C112.609 33.6773 111.32 33.1435 110.37 32.1933C109.42 31.2431 108.886 29.9544 108.886 28.6106C108.886 27.2668 109.42 25.9781 110.37 25.0279C111.32 24.0778 112.609 23.5439 113.953 23.5439Z" fill="#FF3D2E"/>
<path d="M30.2405 32.7986C27.5758 35.5404 23.9563 37.0261 20.1475 37.0261C12.3408 37.0261 6.66445 30.8942 6.66445 22.4778C6.66445 14.0229 12.3408 7.89101 20.1475 7.89101C23.9195 7.89101 27.4987 9.37492 30.2037 12.0799L31.2689 13.1469L35.9537 8.46215L34.9253 7.39521C31.0412 3.39549 25.7853 1.22656 20.1475 1.22656C8.64591 1.22656 0 10.3665 0 22.5146C0 34.6259 8.68445 43.729 20.1475 43.729C25.8239 43.729 31.0797 41.5216 34.9638 37.5219L35.9922 36.4549L31.346 31.6949L30.2405 32.7986Z" fill="white"/>
</svg>
