<?xml version="1.0" encoding="UTF-8"?>
<svg id="Layer_1" data-name="Layer 1" xmlns="http://www.w3.org/2000/svg" viewBox="0 0 130.39 20">
  <defs>
    <style>
      .cls-1 {
        fill: #f78100;
      }

      .cls-2 {
        fill: #fff;
      }

      .cls-3 {
        fill: #fcad32;
      }
    </style>
  </defs>
  <g>
    <path class="cls-1" d="m30.16,18.83l.21-.71c.24-.85.15-1.63-.26-2.2-.38-.53-1.01-.84-1.77-.88l-14.5-.18c-.1,0-.18-.05-.23-.12-.05-.07-.06-.17-.03-.26.05-.14.19-.25.34-.26l14.63-.19c1.74-.08,3.61-1.49,4.27-3.21l.83-2.18c.02-.06.03-.12.03-.19,0-.03,0-.07-.01-.1-.95-4.26-4.75-7.45-9.3-7.45-4.19,0-7.75,2.7-9.02,6.46-.82-.62-1.88-.95-3.01-.83-2.01.2-3.63,1.82-3.82,3.83-.05.52,0,1.03.11,1.5-3.28.1-5.92,2.79-5.92,6.09,0,.3.02.59.06.88.02.14.14.24.28.24h26.76s0,0,0,0c.15,0,.29-.1.33-.25Z"/>
    <path class="cls-3" d="m34.99,8.81c-.13,0-.27,0-.4.01-.02,0-.04,0-.06.01-.07.02-.12.08-.15.15l-.57,1.97c-.24.85-.15,1.63.26,2.2.38.53,1.01.84,1.77.88l3.09.19c.09,0,.17.05.22.12.05.07.06.17.03.26-.05.14-.19.25-.34.26l-3.21.19c-1.74.08-3.62,1.49-4.28,3.21l-.23.61c-.04.11.04.23.15.23,0,0,0,0,0,0h11.05c.13,0,.25-.09.29-.21.19-.68.29-1.4.29-2.15,0-4.38-3.55-7.92-7.92-7.92Z"/>
  </g>
  <g>
    <polygon class="cls-2" points="55.1 12.36 56.93 12.36 56.93 17.35 60.13 17.35 60.13 18.96 55.1 18.96 55.1 12.36"/>
    <path class="cls-2" d="m62.02,15.68v-.02c0-1.9,1.53-3.43,3.57-3.43s3.55,1.52,3.55,3.41v.02c0,1.9-1.53,3.43-3.56,3.43s-3.55-1.52-3.55-3.41m5.24,0v-.02c0-.95-.69-1.78-1.7-1.78s-1.67.81-1.67,1.76v.02c0,.95.69,1.78,1.69,1.78s1.68-.81,1.68-1.76"/>
    <path class="cls-2" d="m71.37,16.06v-3.71h1.86v3.67c0,.95.48,1.41,1.22,1.41s1.22-.43,1.22-1.36v-3.72h1.86v3.66c0,2.13-1.22,3.06-3.09,3.06s-3.06-.95-3.06-3.02"/>
    <path class="cls-2" d="m80.32,12.36h2.55c2.36,0,3.73,1.36,3.73,3.26v.02c0,1.9-1.39,3.32-3.76,3.32h-2.51v-6.6Zm2.57,4.98c1.09,0,1.82-.6,1.82-1.67v-.02c0-1.06-.73-1.67-1.82-1.67h-.75v3.36h.75Z"/>
    <polygon class="cls-2" points="89.25 12.36 94.53 12.36 94.53 13.96 91.08 13.96 91.08 15.08 94.2 15.08 94.2 16.6 91.08 16.6 91.08 18.96 89.25 18.96 89.25 12.36"/>
    <polygon class="cls-2" points="97.08 12.36 98.91 12.36 98.91 17.35 102.11 17.35 102.11 18.96 97.08 18.96 97.08 12.36"/>
    <path class="cls-2" d="m106.89,12.31h1.76l2.81,6.65h-1.96l-.48-1.18h-2.55l-.47,1.18h-1.92l2.81-6.65Zm1.6,4.05l-.74-1.88-.75,1.88h1.48Z"/>
    <path class="cls-2" d="m113.82,12.36h3.12c1.01,0,1.71.26,2.15.72.39.38.58.89.58,1.54v.02c0,1.01-.54,1.68-1.36,2.03l1.58,2.3h-2.11l-1.33-2h-.8v2h-1.83v-6.6Zm3.04,3.17c.62,0,.98-.3.98-.78v-.02c0-.52-.38-.78-.99-.78h-1.2v1.58h1.21Z"/>
    <polygon class="cls-2" points="122.32 12.36 127.62 12.36 127.62 13.91 124.13 13.91 124.13 14.91 127.29 14.91 127.29 16.35 124.13 16.35 124.13 17.4 127.67 17.4 127.67 18.96 122.32 18.96 122.32 12.36"/>
    <path class="cls-2" d="m51.09,16.45c-.26.58-.8.99-1.51.99-1,0-1.69-.83-1.69-1.78v-.02c0-.95.67-1.76,1.67-1.76.75,0,1.33.46,1.57,1.09h1.93c-.31-1.57-1.69-2.74-3.48-2.74-2.04,0-3.56,1.54-3.56,3.43v.02c0,1.9,1.51,3.41,3.55,3.41,1.74,0,3.1-1.13,3.46-2.64h-1.93Z"/>
  </g>
</svg>