<?xml version="1.0" encoding="UTF-8"?>
<svg id="Layer_1" data-name="Layer 1" xmlns="http://www.w3.org/2000/svg" viewBox="0 0 225.05 76.21">
  <defs>
    <style>
      .cls-1 {
        fill: #f9bc15;
      }

      .cls-2 {
        fill: #ea4535;
      }

      .cls-3 {
        fill: #36a852;
      }

      .cls-4 {
        fill: #557ebf;
      }
    </style>
  </defs>
  <path class="cls-4" d="m58.12,27.8h-25.01v7.41h17.71c-.87,10.42-9.55,14.82-17.71,14.82-10.48,0-19.56-8.22-19.56-19.74s8.68-19.85,19.56-19.85c8.39,0,13.37,5.38,13.37,5.38l5.21-5.38s-6.66-7.41-18.81-7.41c-15.45,0-27.44,13.08-27.44,27.15s11.29,27.32,27.84,27.32c14.59,0,25.24-10.01,25.24-24.77,0-3.13-.41-4.92-.41-4.92h0Z"/>
  <path class="cls-2" d="m78.55,22.42c-10.25,0-17.6,8.05-17.6,17.37s7.12,17.65,17.71,17.65c9.61,0,17.42-7.35,17.42-17.42.06-11.63-9.09-17.6-17.54-17.6Zm.12,6.89c5.04,0,9.84,4.05,9.84,10.65s-4.75,10.65-9.84,10.65c-5.61,0-10.01-4.46-10.01-10.65s4.34-10.65,10.01-10.65Z"/>
  <path class="cls-1" d="m116.87,22.42c-10.25,0-17.6,8.05-17.6,17.37s7.12,17.65,17.71,17.65c9.61,0,17.42-7.35,17.42-17.42,0-11.63-9.15-17.6-17.54-17.6h0Zm.12,6.89c5.04,0,9.84,4.05,9.84,10.65s-4.75,10.65-9.84,10.65c-5.61,0-10.01-4.46-10.01-10.65-.06-6.14,4.34-10.65,10.01-10.65Z"/>
  <path class="cls-4" d="m154.38,22.42c-9.43,0-16.79,8.22-16.79,17.48,0,10.53,8.57,17.54,16.67,17.54,4.98,0,7.64-1.97,9.61-4.28v3.47c0,6.02-3.65,9.67-9.2,9.67s-8.05-3.99-8.97-6.25l-6.71,2.84c2.37,5.04,7.18,10.3,15.74,10.3,9.38,0,16.5-5.9,16.5-18.23v-31.49h-7.35v2.95c-2.26-2.37-5.38-3.99-9.49-3.99h0Zm.69,6.89c4.63,0,9.38,3.94,9.38,10.65s-4.75,10.59-9.43,10.59c-5.04,0-9.67-4.05-9.67-10.53-.06-6.71,4.8-10.71,9.72-10.71h0Z"/>
  <path class="cls-2" d="m203.81,22.42c-8.86,0-16.32,7.06-16.32,17.48,0,11.06,8.34,17.6,17.19,17.6,7.41,0,11.98-4.05,14.64-7.7l-6.08-4.05c-1.56,2.43-4.23,4.8-8.57,4.8-4.92,0-7.18-2.72-8.57-5.33l23.5-9.72-1.22-2.84c-2.26-5.61-7.58-10.25-14.59-10.25h0Zm.35,6.71c3.18,0,5.5,1.68,6.48,3.76l-15.69,6.54c-.69-5.09,4.11-10.3,9.2-10.3Z"/>
  <rect class="cls-3" x="176.31" y="4.82" width="7.7" height="51.63"/>
</svg>