<?xml version="1.0" encoding="UTF-8"?>
<svg id="Layer_1" data-name="Layer 1" xmlns="http://www.w3.org/2000/svg" viewBox="0 0 346.01 76.21">
  <defs>
    <style>
      .cls-1 {
        fill: #f9bc15;
      }

      .cls-2 {
        fill: #f05423;
      }

      .cls-3 {
        fill: #fff;
      }

      .cls-4 {
        fill: #84c441;
      }

      .cls-5 {
        fill: #2dabe2;
      }
    </style>
  </defs>
  <path class="cls-3" d="m341.71,34.67v-5.93h-7.37v-9.22l-.25.08-6.92,2.12-.14.04v6.99h-10.92v-3.89c0-1.81.41-3.2,1.2-4.13.79-.91,1.93-1.38,3.38-1.38,1.04,0,2.12.25,3.2.73l.27.12v-6.25l-.13-.05c-1.01-.36-2.39-.55-4.09-.55-2.15,0-4.1.47-5.81,1.39-1.7.93-3.04,2.25-3.98,3.94-.94,1.68-1.41,3.63-1.41,5.78v4.28h-5.13v5.93h5.13v25h7.37v-25h10.92v15.89c0,6.54,3.09,9.86,9.17,9.86,1,0,2.05-.12,3.13-.35,1.09-.24,1.84-.47,2.28-.72l.1-.06v-5.99l-.3.2c-.4.27-.9.48-1.48.65-.59.16-1.08.25-1.46.25-1.43,0-2.48-.38-3.14-1.14-.66-.77-1-2.1-1-3.97v-14.6h7.37Zm-54.54,19.72c-2.67,0-4.78-.89-6.27-2.63-1.49-1.76-2.25-4.26-2.25-7.44s.76-5.85,2.25-7.63c1.49-1.77,3.57-2.67,6.21-2.67s4.59.86,6.04,2.56c1.46,1.71,2.21,4.25,2.21,7.57s-.7,5.94-2.08,7.67c-1.37,1.71-3.42,2.58-6.11,2.58m.33-26.4c-5.1,0-9.15,1.49-12.04,4.44-2.89,2.95-4.35,7.03-4.35,12.13s1.43,8.74,4.25,11.58c2.82,2.84,6.65,4.28,11.4,4.28s8.91-1.52,11.8-4.5c2.89-2.99,4.35-7.03,4.35-12.01s-1.37-8.84-4.08-11.66c-2.71-2.82-6.52-4.25-11.33-4.25m-28.27,0c-3.47,0-6.34.89-8.53,2.64-2.21,1.76-3.32,4.07-3.32,6.86,0,1.45.24,2.74.72,3.84.48,1.1,1.22,2.06,2.2,2.88.98.8,2.48,1.65,4.48,2.5,1.68.69,2.93,1.27,3.72,1.73.78.45,1.33.9,1.64,1.35.3.43.46,1.02.46,1.75,0,2.08-1.56,3.09-4.76,3.09-1.19,0-2.54-.25-4.03-.74-1.47-.48-2.86-1.19-4.12-2.09l-.31-.22v7.09l.11.05c1.04.48,2.36.89,3.91,1.21,1.55.32,2.95.48,4.17.48,3.76,0,6.8-.89,9.01-2.65,2.23-1.77,3.35-4.14,3.35-7.03,0-2.09-.61-3.87-1.8-5.32-1.19-1.43-3.25-2.74-6.13-3.9-2.29-.92-3.76-1.68-4.37-2.27-.58-.57-.88-1.37-.88-2.38,0-.9.37-1.62,1.12-2.2.76-.59,1.81-.88,3.13-.88,1.23,0,2.48.19,3.73.57,1.25.38,2.34.89,3.26,1.51l.3.21v-6.73l-.12-.05c-.84-.36-1.96-.67-3.31-.92-1.35-.25-2.57-.38-3.63-.38m-31.06,26.4c-2.67,0-4.78-.89-6.27-2.63-1.49-1.76-2.25-4.26-2.25-7.44s.76-5.85,2.25-7.63c1.49-1.77,3.57-2.67,6.21-2.67s4.59.86,6.04,2.56c1.46,1.71,2.21,4.25,2.21,7.57s-.7,5.94-2.08,7.67c-1.37,1.71-3.42,2.58-6.11,2.58m.33-26.4c-5.1,0-9.15,1.49-12.04,4.44-2.89,2.95-4.35,7.03-4.35,12.13s1.43,8.74,4.25,11.58c2.82,2.84,6.65,4.28,11.4,4.28s8.92-1.52,11.8-4.5c2.89-2.99,4.35-7.03,4.35-12.01s-1.37-8.84-4.08-11.66c-2.71-2.82-6.52-4.25-11.32-4.25m-27.57,6.1v-5.36h-7.28v30.93h7.28v-15.82c0-2.69.61-4.9,1.81-6.57,1.19-1.65,2.77-2.49,4.71-2.49.66,0,1.39.11,2.19.32.79.21,1.36.44,1.7.69l.31.22v-7.34l-.12-.05c-.68-.29-1.64-.43-2.85-.43-1.83,0-3.46.59-4.87,1.74-1.23,1.02-2.12,2.41-2.8,4.15h-.08Zm-20.31-6.1c-3.34,0-6.32.72-8.85,2.13-2.54,1.41-4.5,3.43-5.84,6-1.33,2.56-2,5.55-2,8.89,0,2.92.65,5.6,1.95,7.97,1.29,2.37,3.13,4.22,5.44,5.5,2.32,1.28,4.99,1.93,7.95,1.93,3.46,0,6.41-.69,8.78-2.05l.1-.05v-6.67l-.31.22c-1.07.78-2.27,1.4-3.56,1.85-1.29.45-2.46.68-3.49.68-2.85,0-5.15-.89-6.81-2.65-1.67-1.76-2.51-4.24-2.51-7.36s.88-5.68,2.62-7.55c1.73-1.87,4.03-2.82,6.82-2.82,2.39,0,4.72.81,6.93,2.41l.31.22v-7.02l-.1-.06c-.83-.46-1.96-.85-3.37-1.14-1.4-.29-2.77-.44-4.07-.44m-21.7.75h-7.28v30.93h7.28v-30.93h0Zm-3.56-13.18c-1.2,0-2.24.41-3.1,1.22-.86.81-1.3,1.83-1.3,3.03s.43,2.19,1.29,2.97c.85.79,1.9,1.18,3.11,1.18s2.27-.4,3.13-1.18c.86-.79,1.3-1.79,1.3-2.98s-.43-2.17-1.27-3c-.84-.83-1.9-1.25-3.16-1.25m-18.15,10.89v33.21h7.43V16.51h-10.28l-13.06,32.06-12.68-32.06h-10.7v43.16h6.98V26.46h.24l13.39,33.22h5.27l13.18-33.21h.24Z"/>
  <path class="cls-2" d="m38.53,36.32H4.3V2.09h34.23v34.23Z"/>
  <path class="cls-4" d="m76.32,36.32h-34.23V2.09h34.23v34.23h0Z"/>
  <path class="cls-5" d="m38.52,74.12H4.3v-34.23h34.23v34.23Z"/>
  <path class="cls-1" d="m76.32,74.12h-34.23v-34.23h34.23v34.23h0Z"/>
</svg>