<?xml version="1.0" encoding="UTF-8"?>
<svg id="Layer_1" data-name="Layer 1" xmlns="http://www.w3.org/2000/svg" viewBox="0 0 60 60">
  <defs>
    <style>
      .cls-1 {
        fill: #222831;
      }

      .cls-2 {
        fill: #00adb5;
        isolation: isolate;
        opacity: .4;
      }
    </style>
  </defs>
  <rect class="cls-2" width="60" height="60" rx="6" ry="6"/>
  <path class="cls-1" d="m33.73,47.06c-.61.27-1.21.53-1.77.78-.74-.74-1.45-1.46-2.2-2.21.24-.55.51-1.15.78-1.76-.53-.87-.92-1.8-1.17-2.82-.61-.24-1.24-.49-1.87-.73v-3.05c.61-.24,1.22-.47,1.86-.72.25-.99.63-1.93,1.18-2.83-.2-.45-.4-.9-.6-1.35-.04-.09-.08-.19-.12-.28-.05-.16-.03-.29.1-.41.6-.59,1.19-1.18,1.78-1.78.16-.16.31-.13.48-.05.5.22.99.44,1.52.68.9-.49,1.83-.94,2.85-1.15.25-.64.49-1.25.73-1.88h3.06c.23.6.48,1.22.73,1.86,1.01.24,1.95.66,2.84,1.17.62-.27,1.2-.53,1.76-.78.74.74,1.45,1.45,2.2,2.2-.24.55-.51,1.15-.78,1.78.53.87.92,1.82,1.17,2.83.62.24,1.23.48,1.86.72v3.07c-.61.24-1.23.48-1.86.73-.25.99-.63,1.93-1.17,2.82.27.6.53,1.22.79,1.8-.73.73-1.44,1.44-2.19,2.18-.57-.25-1.18-.52-1.8-.79-.88.53-1.81.92-2.82,1.17-.24.61-.47,1.22-.72,1.86h-3.08c-.24-.61-.47-1.22-.72-1.85-1-.25-1.94-.63-2.82-1.17Zm10.41-8.28c0-3.06-2.56-5.37-5.4-5.33-2.91.04-5.3,2.45-5.27,5.39.02,2.78,2.26,5.33,5.4,5.29,3.09-.03,5.3-2.58,5.27-5.35Z"/>
  <g>
    <path class="cls-1" d="m38.96,13.29c.2.21.4.42.6.63,1.02,1.02,2.05,2.05,3.07,3.07.1.1.21.18.27.32-.09.07-.2.04-.29.04-1.09,0-2.18,0-3.27,0-.06,0-.13,0-.19,0-.24-.02-.35-.12-.35-.36,0-1.26,0-2.51.01-3.77.05.02.1.05.15.07Z"/>
    <g>
      <path class="cls-1" d="m29.87,29.4c-.31.07-.63.04-.95.04-.56,0-1.12,0-1.68.01-.32.01-.54.25-.57.56-.02.29.19.56.5.62.1.02.2.02.3.03.28,0,.56,0,.84,0,.08,0,.15,0,.26,0-.11.27-.37.37-.5.62.28.65.58,1.32.87,1.98-.03.16-.13.28-.2.43-.26.05-.52.01-.79.02-.25,0-.51,0-.76.01-.3.02-.51.26-.54.55-.02.27.16.52.42.61.12.04.25.05.38.05.24,0,.48,0,.71,0,.05.25-.05.35-.25.42-.62.23-1.23.47-1.85.71v4.74c.68.27,1.37.53,2.07.8.21.69.49,1.34.82,1.98-.29.66-.58,1.32-.88,1.99.31.45.77.76,1.1,1.19,0,.02,0,.04,0,.06-.13,0-.25.01-.38.01-3.61,0-7.22,0-10.83,0-.06,0-.13,0-.19,0-.53-.01-.78-.28-.79-.81,0-.08,0-.15,0-.23,0-10.55,0-21.11,0-31.66,0-.13,0-.26,0-.38.04-.38.3-.62.68-.64.08,0,.15,0,.23,0,6.43,0,12.87,0,19.3,0,.1,0,.2,0,.3.01.02.02.04.04.06.07,0,1.22,0,2.44.01,3.66,0,.19,0,.38.05.57.21.68.78,1.12,1.51,1.12,1.14,0,2.29,0,3.43,0,.13,0,.25,0,.38,0,.07.28.1,9.17.03,9.85-.39-.14-.78-.28-1.19-.43-.26-.68-.53-1.37-.8-2.07h-4.73c-.08.19-.16.39-.24.57-.15.05-.29.03-.43.03-2.67,0-5.34,0-8.01,0-.14,0-.28-.01-.42.03-.29.09-.49.34-.47.62.02.31.25.54.56.57.11.01.23,0,.34,0,1.07,0,2.14,0,3.2,0,.13,0,.25-.03.38.03.03.15-.09.23-.17.31-.32.32-.64.65-.97.96-.11.1-.19.2-.16.36Zm-9.93-6.72c.11.49.26.62.75.63.8,0,1.6,0,2.4,0,.47,0,.68-.22.69-.67,0-.83,0-1.65,0-2.48,0-.16-.03-.3-.12-.43-.15-.2-.37-.25-.61-.25-.77,0-1.55,0-2.32,0-.51,0-.7.17-.78.68-.05,0-.1,0-.12.05v2.45c.05.01.09.02.12.02Zm0,4.58c-.19.01-.21.17-.21.3,0,.69,0,1.39,0,2.08,0,.13.02.28.21.3.06.39.33.59.72.59.8,0,1.6,0,2.4,0,.49,0,.71-.24.71-.74,0-.79,0-1.57,0-2.36,0-.51-.22-.74-.75-.74-.77,0-1.55,0-2.32,0-.46,0-.62.14-.76.59Zm13.73-3.8c2.03,0,4.07,0,6.1,0,.11,0,.23,0,.34,0,.29-.03.5-.24.53-.51.04-.31-.11-.55-.4-.65-.12-.04-.25-.05-.38-.05-4.13,0-8.26,0-12.39,0-.14,0-.28,0-.41.06-.26.11-.42.39-.37.64.05.28.25.48.54.51.11.01.23,0,.34,0,2.03,0,4.07,0,6.1,0Zm-.03-2.91c2.03,0,4.07,0,6.1,0,.11,0,.23,0,.34,0,.32-.02.55-.25.57-.56.02-.33-.19-.6-.51-.65-.11-.02-.23-.01-.34-.01-4.08,0-8.16,0-12.23,0-.1,0-.2,0-.3,0-.33.04-.55.29-.54.62,0,.34.22.57.57.59.1,0,.2,0,.3,0,2.02,0,4.04,0,6.06,0Zm-9.86,15.25c0-.41,0-.81,0-1.22,0-.49-.21-.7-.69-.7-.81,0-1.63,0-2.44,0-.47,0-.69.23-.69.71,0,.8,0,1.6,0,2.4,0,.47.23.71.7.71.81,0,1.63,0,2.44,0,.45,0,.68-.24.68-.68,0-.41,0-.81,0-1.22Z"/>
      <path class="cls-1" d="m31.4,27.76s.05-.02.07-.02c1.33,0,2.67,0,4.02,0,0,.15-.02.25-.17.29-.64.2-1.25.47-1.85.77-.71-.27-1.36-.63-2.07-.88,0-.05,0-.11,0-.16Z"/>
    </g>
  </g>
  <path class="cls-1" d="m30.54,27.99c0,.05,0,.11,0,.16-.44.44-.88.88-1.32,1.32-.06.06-.1.15-.21.15-.03-.16.05-.26.16-.36.33-.32.65-.64.97-.96.09-.09.2-.16.17-.31.08-.04.15-.04.23,0Z"/>
  <path class="cls-1" d="m36.7,13.45s-.04-.04-.06-.07c.05,0,.08,0,.06.07Z"/>
  <path class="cls-1" d="m28.32,47.07s0-.04,0-.06c.03,0,.06.01.05.05,0,0-.04,0-.05,0Z"/>
  <path class="cls-1" d="m19.08,27.48v2.67c-.19-.01-.21-.17-.21-.3,0-.69,0-1.39,0-2.08,0-.13.02-.28.21-.3Z"/>
  <path class="cls-1" d="m19.08,20.39c.02.84.02,1.68,0,2.52-.04,0-.07-.01-.12-.02v-2.45s.08-.04.12-.05Z"/>
  <path class="cls-1" d="m38.08,39.22c.54-.52,1.07-1.03,1.6-1.55.33-.32.64-.65.96-.98.17-.17.36-.28.61-.28.3,0,.55.12.69.39.15.28.16.56-.03.83-.07.1-.16.2-.25.29-.95.96-1.89,1.91-2.84,2.87-.05.05-.11.11-.16.16-.35.31-.74.32-1.1,0-.12-.11-.24-.23-.35-.35-.42-.42-.84-.84-1.27-1.27-.07-.07-.15-.14-.21-.22-.25-.31-.24-.72.02-1.01.27-.31.69-.36,1.03-.13.09.06.18.15.26.23.28.28.56.56.84.83.07.07.13.16.2.18Z"/>
</svg>