<?xml version="1.0" encoding="UTF-8"?>
<svg id="Layer_1" data-name="Layer 1" xmlns="http://www.w3.org/2000/svg" viewBox="0 0 60 60">
  <defs>
    <style>
      .cls-1 {
        fill: #222831;
      }

      .cls-2 {
        fill: #00adb5;
        isolation: isolate;
        opacity: .4;
      }
    </style>
  </defs>
  <rect class="cls-2" width="60" height="60" rx="6" ry="6"/>
  <g>
    <path class="cls-1" d="m14.25,39.48V14.93c.25-.53.67-.69,1.24-.69,9.7.01,19.4,0,29.1,0,.84,0,1.17.32,1.17,1.17,0,7.86,0,15.71,0,23.57,0,.85-.32,1.17-1.17,1.17-9.7,0-19.4,0-29.1,0-.57,0-.99-.15-1.24-.69Zm11.13-12.25c2.09,0,4.18,0,6.28,0,.76,0,1.11-.35,1.11-1.1,0-2.34,0-4.68,0-7.01,0-.77-.35-1.11-1.1-1.11-4.18,0-8.37,0-12.55,0-.77,0-1.11.34-1.11,1.1,0,2.34,0,4.68,0,7.01,0,.77.35,1.12,1.13,1.12,2.08,0,4.16,0,6.25,0Zm-1.85,1.84c-1.5,0-2.99,0-4.49,0-.67,0-1.04.37-1.04,1.05,0,1.75,0,3.51,0,5.26,0,.72.36,1.08,1.08,1.08,2.97,0,5.94,0,8.92,0,.72,0,1.08-.35,1.08-1.07,0-1.75,0-3.51,0-5.26,0-.7-.36-1.06-1.06-1.06-1.5,0-2.99,0-4.49,0Zm12.93,0c-1.51,0-3.01,0-4.52,0-.64,0-1.02.38-1.02,1.01,0,1.78,0,3.57,0,5.35,0,.65.38,1.02,1.04,1.02,3,0,6.01,0,9.01,0,.66,0,1.03-.37,1.03-1.03,0-1.77,0-3.55,0-5.32,0-.68-.37-1.04-1.05-1.04-1.5,0-2.99,0-4.49,0Zm1.84-5.54c.9,0,1.8,0,2.7,0,.58,0,.98-.38.99-.91,0-.54-.41-.93-1-.93-1.79,0-3.58,0-5.38,0-.59,0-1.01.39-1.01.93,0,.53.42.92,1.02.92.89,0,1.78,0,2.67,0Zm0,3.69c.9,0,1.8,0,2.7,0,.58,0,.98-.38.99-.91,0-.54-.41-.93-1-.93-1.79,0-3.58,0-5.38,0-.59,0-1.01.39-1.01.93,0,.53.42.92,1.02.92.89,0,1.78,0,2.67,0Zm0-9.23c-.89,0-1.78,0-2.68,0-.59,0-1.01.39-1.01.92,0,.53.42.92,1.01.92,1.78,0,3.57,0,5.35,0,.6,0,1.01-.39,1.01-.92,0-.54-.42-.92-1.01-.92-.89,0-1.78,0-2.68,0Z"/>
    <path class="cls-1" d="m22.37,45.76s-.08-.06-.12-.08c-.42-.22-.63-.63-.53-1.04.11-.44.46-.73.94-.73.8,0,1.6,0,2.4,0,.1,0,.2,0,.32,0v-1.89h9.23v1.89c.92,0,1.81,0,2.7,0,.32,0,.58.1.78.35.35.44.24,1.07-.24,1.36-.08.05-.15.09-.23.14h-15.26Z"/>
    <path class="cls-1" d="m19.87,19.86h11.03v5.5h-11.03v-5.5Z"/>
    <path class="cls-1" d="m27.22,30.94v3.65h-7.35v-3.65h7.35Z"/>
    <path class="cls-1" d="m32.79,34.6v-3.66h7.35v3.66h-7.35Z"/>
  </g>
</svg>