<?xml version="1.0" encoding="UTF-8"?>
<svg id="Layer_1" data-name="Layer 1" xmlns="http://www.w3.org/2000/svg" viewBox="0 0 60 60">
  <defs>
    <style>
      .cls-1 {
        fill: #222831;
      }

      .cls-2 {
        fill: #00adb5;
        isolation: isolate;
        opacity: .4;
      }
    </style>
  </defs>
  <rect class="cls-2" width="60" height="60" rx="6" ry="6"/>
  <path class="cls-1" d="m14.24,37.66c0-5.05,0-10.09,0-15.14.11-.39.18-.8.33-1.18.61-1.54,2.19-2.8,4.32-2.79,5.86.03,11.71,0,17.57,0,1.64,0,3.28-.02,4.92,0,2.43.04,4.36,2,4.36,4.42.01,4.73,0,9.46,0,14.18,0,.92-.26,1.76-.8,2.51-.95,1.32-2.25,1.93-3.88,1.93-6.09-.01-12.18,0-18.27,0-1.4,0-2.81.02-4.21,0-1.98-.04-3.67-1.37-4.19-3.29-.06-.22-.1-.44-.15-.65Zm13.3.26c.45,0,.74-.24.92-.76,1.04-2.95,2.09-5.9,3.13-8.86.56-1.58,1.12-3.16,1.67-4.75.25-.73-.26-1.38-.99-1.27-.44.06-.65.37-.79.76-1.11,3.16-2.22,6.31-3.34,9.47-.48,1.37-.97,2.74-1.45,4.11-.24.68.17,1.3.85,1.3Zm-6.54-7.57c.09-.09.16-.18.24-.25,1.46-1.46,2.93-2.93,4.39-4.39.4-.4.41-.97.05-1.35-.36-.36-.94-.37-1.32.02-1.77,1.77-3.54,3.53-5.31,5.31-.39.39-.4.93-.01,1.32,1.6,1.61,3.2,3.21,4.8,4.81.21.21.46.31.75.27.38-.04.65-.24.78-.61.14-.39.02-.72-.26-1.01-1.29-1.29-2.58-2.58-3.87-3.87-.08-.08-.15-.16-.24-.25Zm18-.52c-.09.1-.18.19-.26.27-1.46,1.46-2.92,2.91-4.37,4.37-.4.4-.42.97-.05,1.34.36.36.93.37,1.32-.02,1.77-1.76,3.54-3.53,5.31-5.31.39-.39.4-.93.01-1.32-1.6-1.61-3.2-3.21-4.8-4.81-.21-.21-.46-.31-.75-.27-.38.04-.65.25-.78.61-.14.39-.02.72.26,1.01,1.29,1.29,2.58,2.58,3.87,3.87.08.08.15.16.24.25Z"/>
</svg>