<?xml version="1.0" encoding="UTF-8"?>
<svg id="Layer_1" data-name="Layer 1" xmlns="http://www.w3.org/2000/svg" viewBox="0 0 60 60">
  <defs>
    <style>
      .cls-1 {
        fill: #222831;
      }

      .cls-2 {
        fill: #00adb5;
        isolation: isolate;
        opacity: .4;
      }
    </style>
  </defs>
  <rect class="cls-2" width="60" height="60" rx="6" ry="6"/>
  <g>
    <path class="cls-1" d="m14.25,41.63c.18-.29.43-.38.77-.38,2.81.01,5.62,0,8.43,0h.34c.01.28.01.52.04.76.11,1.09.92,1.91,2.01,2.03.11.01.22.02.34.02,2.54,0,5.09,0,7.63,0,1.18,0,2.07-.67,2.31-1.73.08-.34.07-.69.11-1.08h.32c2.82,0,5.64,0,8.46,0,.58,0,.76.17.75.75,0,.45.02.91-.04,1.35-.19,1.23-1.03,2.08-2.25,2.34-.04,0-.07.03-.11.05h-26.71c-.08-.02-.15-.05-.23-.07-1-.27-1.68-.89-2.03-1.86-.05-.15-.09-.31-.14-.46,0-.57,0-1.15,0-1.72Zm6.47,1.87c.28,0,.55,0,.83,0,.35-.01.58-.24.58-.55,0-.31-.23-.56-.57-.57-.56-.01-1.13-.01-1.69,0-.32,0-.55.26-.55.55,0,.31.23.55.57.56.28.01.55,0,.83,0Zm-1.97-.55c0-.31-.25-.57-.56-.57-.31,0-.56.26-.55.57,0,.3.24.54.54.54.32,0,.57-.23.57-.55Zm-2.8-.04c-.02.31.22.58.53.59.31.01.58-.23.59-.53.01-.29-.23-.55-.52-.58-.3-.03-.58.22-.6.53Z"/>
    <path class="cls-1" d="m15.37,40.11c0-.13,0-.24,0-.35,0-6.55,0-13.11,0-19.66,0-1.24.67-1.91,1.92-1.91,1.93,0,3.86,0,5.78,0,.22,0,.35.06.47.25.46.72.47.72.08,1.47-.04.08-.16.14-.26.16-.45.1-.9.19-1.35.27-.66.13-1,.53-1,1.2,0,.4,0,.8,0,1.2,0,.63.35,1.04.96,1.17.47.1.95.19,1.41.3.11.03.22.15.29.25.36.51.27.96-.14,1.41-.2.22-.34.49-.5.74-.3.48-.25,1,.14,1.41.3.32.62.63.94.94.41.39.93.45,1.41.15.43-.26.84-.54,1.26-.82.13-.09.23-.08.39-.04.59.15.89.49.9,1.11,0,.27.1.54.16.81.13.62.54.96,1.17.97.41,0,.82,0,1.23,0,.63,0,1.03-.34,1.17-.97.1-.46.2-.92.28-1.38.03-.17.13-.24.27-.32.51-.33.95-.25,1.39.14.22.2.49.34.74.5.5.31,1.01.27,1.44-.13.32-.3.63-.61.93-.94.39-.41.44-.93.14-1.41-.26-.43-.56-.84-.81-1.27-.06-.1-.05-.26-.03-.38.11-.61.49-.88,1.1-.9.28,0,.56-.1.84-.16.58-.13.91-.54.93-1.14,0-.42,0-.84,0-1.26-.01-.62-.34-1.02-.95-1.15-.48-.11-.96-.19-1.44-.31-.1-.03-.19-.14-.27-.23-.06-.07-.06-.18-.11-.25-.24-.34-.14-.61.08-.93.22-.33.43-.45.83-.45,1.89.03,3.77.01,5.66.01,1.12,0,1.83.7,1.83,1.82,0,6.6,0,13.21,0,19.81,0,.09,0,.18-.01.29H15.37Zm28.13-6.15c.02-2.79-2.22-5.06-5.01-5.08-2.79-.02-5.08,2.21-5.11,4.99-.02,2.83,2.21,5.11,5.03,5.13,2.81.01,5.07-2.22,5.09-5.03Zm-27-.04c-.01,2.79,2.23,5.05,5.02,5.07,2.81.02,5.09-2.23,5.1-5.03.01-2.81-2.23-5.08-5.04-5.09-2.81,0-5.07,2.23-5.08,5.04Z"/>
    <path class="cls-1" d="m24.91,28.15c-.06-.05-.1-.09-.15-.13-.27-.25-.53-.51-.81-.78.31-.46.59-.9.88-1.32.31-.44.34-.88.11-1.36-.1-.2-.18-.41-.26-.62-.16-.47-.48-.74-.97-.83-.52-.1-1.04-.21-1.57-.32v-1.32c.52-.1,1.03-.22,1.55-.31.5-.09.83-.37,1-.85.08-.22.17-.44.27-.65.22-.46.18-.89-.11-1.31-.2-.28-.39-.58-.58-.87-.23-.35-.18-.57.16-.92.35-.35.57-.4.91-.18.32.2.63.42.95.63.37.24.76.27,1.17.1.26-.11.53-.23.79-.33.42-.16.67-.46.76-.9.08-.37.14-.74.22-1.11.09-.42.26-.52.8-.52.47,0,.64.12.73.53.08.35.15.7.21,1.05.09.47.34.8.8.96.26.09.51.21.77.32.4.17.78.15,1.14-.09.32-.21.63-.42.95-.63.36-.23.58-.19.92.14.36.36.41.58.18.94-.19.3-.39.6-.6.9-.27.4-.31.81-.1,1.25.11.23.21.47.29.71.16.46.48.72.96.81.52.1,1.04.21,1.58.32v1.33c-.51.1-1.02.22-1.54.31-.5.09-.83.36-1,.84-.09.24-.19.48-.29.71-.19.42-.16.82.09,1.2.3.45.6.9.89,1.33-.32.32-.62.63-.95.96-.41-.27-.85-.56-1.29-.86-.41-.28-.83-.32-1.28-.11-.24.11-.49.21-.74.3-.42.16-.67.46-.76.9-.11.53-.21,1.06-.32,1.61h-1.33c-.11-.52-.22-1.04-.31-1.56-.09-.49-.35-.81-.82-.98-.23-.08-.46-.18-.68-.28-.46-.22-.89-.17-1.3.12-.43.3-.87.58-1.31.87Zm5.09-1.53c2.49,0,4.5-2,4.5-4.49,0-2.49-2-4.5-4.49-4.5-2.49,0-4.5,2.01-4.5,4.49,0,2.49,2,4.5,4.49,4.5Z"/>
    <path class="cls-1" d="m24.94,41.27h10.1c0,.27.03.52,0,.77-.07.5-.53.89-1.07.89-2.65,0-5.29,0-7.94,0-.61,0-1.06-.47-1.09-1.07,0-.18,0-.37,0-.59Z"/>
    <path class="cls-1" d="m42.37,33.94c0,2.17-1.76,3.94-3.93,3.94-2.18,0-3.96-1.78-3.95-3.95,0-2.16,1.78-3.92,3.95-3.92,2.17,0,3.93,1.76,3.93,3.94Zm-3.94-.77c-.4-.41-.78-.8-1.16-1.19-.1-.1-.22-.2-.34-.24-.26-.08-.5-.01-.64.23-.15.25-.11.5.09.7.42.42.84.83,1.33,1.31-.13.09-.23.14-.31.22-.35.34-.7.69-1.04,1.05-.22.23-.2.57.01.78.2.2.52.21.75.02.1-.08.18-.17.27-.25.34-.35.69-.7,1.04-1.07.44.44.83.86,1.25,1.24.14.12.37.23.53.21.16-.03.38-.21.43-.36.05-.17-.02-.44-.14-.57-.4-.44-.84-.83-1.31-1.28.45-.44.86-.82,1.25-1.22.29-.3.31-.62.07-.87-.24-.24-.57-.21-.87.08-.39.39-.78.78-1.22,1.22Z"/>
    <path class="cls-1" d="m17.63,33.94c0-2.17,1.75-3.94,3.92-3.94,2.18,0,3.96,1.77,3.96,3.95,0,2.16-1.78,3.93-3.94,3.93-2.17,0-3.93-1.76-3.93-3.93Zm2.79.93c-.24-.26-.44-.51-.67-.73-.27-.26-.58-.27-.82-.04-.25.24-.24.56.04.84.34.34.68.69,1.02,1.02.29.29.6.3.89,0,1.1-1.09,2.19-2.18,3.28-3.28.27-.27.27-.62.03-.84-.23-.22-.56-.2-.82.05-.31.3-.61.61-.91.91-.66.67-1.32,1.34-2.04,2.06Z"/>
    <path class="cls-1" d="m29.99,18.74c1.86,0,3.39,1.53,3.39,3.39,0,1.85-1.52,3.37-3.37,3.37-1.86,0-3.39-1.53-3.39-3.39,0-1.85,1.52-3.36,3.37-3.37Z"/>
  </g>
</svg>