<?xml version="1.0" encoding="UTF-8"?>
<svg id="Layer_1" data-name="Layer 1" xmlns="http://www.w3.org/2000/svg" viewBox="0 0 60 60">
  <defs>
    <style>
      .cls-1 {
        fill: #222831;
      }

      .cls-2 {
        fill: #00adb5;
        isolation: isolate;
        opacity: .4;
      }
    </style>
  </defs>
  <rect class="cls-2" width="60" height="60" rx="6" ry="6"/>
  <g>
    <path class="cls-1" d="m14.25,22.55c.18.01.37.03.55.03,1.11,0,2.21,0,3.32,0,.11,0,.22,0,.35,0v14.83c-.12,0-.23,0-.35,0-1.17,0-2.34,0-3.51,0-.12,0-.24.02-.36.03,0-4.96,0-9.93,0-14.89Z"/>
    <path class="cls-1" d="m27.62,23.65c3.51,0,6.36,2.83,6.37,6.34,0,3.51-2.83,6.36-6.35,6.36-3.51,0-6.36-2.83-6.37-6.34,0-3.51,2.84-6.36,6.35-6.36Zm.02,8.46c1.17,0,2.11-.94,2.12-2.11,0-1.17-.94-2.11-2.11-2.12-1.18,0-2.14.94-2.13,2.12,0,1.16.95,2.1,2.12,2.1Z"/>
    <path class="cls-1" d="m43.12,37.4h-4.25v-10.57h-2.63v-4.22h9.51v4.2h-2.63v10.59Z"/>
    <path class="cls-1" d="m34.72,20.25c-4.74-3.02-9.42-3.02-14.16,0-.33-.45-.68-.93-1.03-1.42,4.07-3.24,11.13-3.86,16.24-.02-.35.48-.7.97-1.04,1.44Z"/>
    <path class="cls-1" d="m34.72,39.75c.34.46.69.94,1.03,1.42-4.26,3.37-11.31,3.74-16.24.01.35-.48.7-.97,1.04-1.43,4.72,3.02,9.42,3.03,14.16,0Z"/>
    <path class="cls-1" d="m32.54,23.25c-3.29-2.09-6.53-2.09-9.8,0-.34-.47-.69-.95-1.06-1.46,1.66-1.21,3.51-1.85,5.54-1.93,2.34-.09,4.46.55,6.39,1.93-.37.51-.73,1-1.07,1.46Z"/>
    <path class="cls-1" d="m21.68,38.2c.36-.5.71-.97,1.05-1.45,3.27,2.09,6.52,2.09,9.8,0,.34.47.69.95,1.05,1.44-3.11,2.46-8.27,2.76-11.91.01Z"/>
  </g>
</svg>