<?xml version="1.0" encoding="UTF-8"?>
<svg id="Layer_1" data-name="Layer 1" xmlns="http://www.w3.org/2000/svg" viewBox="0 0 60 60">
  <defs>
    <style>
      .cls-1 {
        fill: #222831;
      }

      .cls-2 {
        fill: #00adb5;
        isolation: isolate;
        opacity: .4;
      }
    </style>
  </defs>
  <rect class="cls-2" width="60" height="60" rx="6" ry="6"/>
  <g>
    <path class="cls-1" d="m37.33,26.69c-.81-.13-1.52-.46-2.1-1.05-.67-.68-1.03-1.5-1.04-2.45-.01-2.05-.02-4.09,0-6.14.02-1.92,1.59-3.49,3.51-3.51,2.24-.02,4.49-.02,6.73,0,1.92.02,3.49,1.59,3.51,3.51.02,2.04.02,4.09,0,6.14-.02,1.92-1.59,3.48-3.51,3.51-.95.02-1.9.01-2.84,0-.2,0-.3.07-.42.23-1.1,1.54-2.61,2.25-4.49,2.18-.3-.01-.57-.1-.67-.43-.1-.32.08-.52.31-.73.39-.36.73-.75,1.1-1.14-.03-.04-.06-.09-.09-.13Zm3.69-7.16c1.07,0,2.14,0,3.21,0,.46,0,.71-.21.72-.58.01-.38-.25-.62-.72-.62-2.1,0-4.21,0-6.31,0-.48,0-.74.21-.74.6,0,.38.26.6.74.6,1.03,0,2.07,0,3.1,0Zm.06,2.39c-.66,0-1.32,0-1.98,0-.47,0-.73.22-.73.61,0,.37.26.59.71.59,1.32,0,2.64,0,3.96,0,.45,0,.7-.22.71-.59,0-.39-.25-.6-.73-.61-.65,0-1.29,0-1.94,0Z"/>
    <path class="cls-1" d="m19.12,19.53v1.2c-.9,0-1.78,0-2.66,0-.66,0-.83.18-.83.85,0,4.78,0,9.55,0,14.33,0,.86.13.99,1,.99.05,0,.1,0,.2,0,0-.53,0-1.06,0-1.59,0-1.35.3-2.63.99-3.78,1.65-2.76,4.07-4.23,7.33-4.2.46,0,.62.13.74.57.15.52.46.73,1.1.73.67,0,.99-.2,1.14-.74.12-.44.28-.56.75-.57,4.14-.04,7.41,2.61,8.19,6.69.09.46.1.94.12,1.41.02.48,0,.97,0,1.48,1.42,0,2.81,0,4.21,0,.38,0,.58-.27.58-.72,0-1.8,0-3.59,0-5.39,0-.94,0-1.89,0-2.85h1.2v.34c0,2.62,0,5.24,0,7.86,0,1.22-.74,1.96-1.95,1.96-8.28,0-16.56,0-24.84,0-1.19,0-1.94-.75-1.94-1.93,0-4.9,0-9.8,0-14.7,0-1.17.75-1.92,1.91-1.92.92,0,1.84,0,2.78,0Zm16.84,17.35c.21-3.67-1.36-6.83-3.73-7.58-.72,2.26-2.26,3.59-4.61,3.98v3.6h8.34Zm-14.19-7.6c-2.59,1.08-4.38,4.77-3.7,7.58h8.31v-3.58c-2.35-.4-3.87-1.73-4.61-4Z"/>
    <path class="cls-1" d="m32.4,40.48v1.77c.21.01.42.01.63.05,1.09.19,1.83,1.14,1.74,2.22-.09,1.15-.93,1.93-2.11,1.94-2.57.01-5.14,0-7.71,0-.23,0-.47-.05-.7-.12-.94-.29-1.53-1.2-1.41-2.16.13-1.08.89-1.84,1.92-1.91.14,0,.27,0,.43,0v-1.8h-.39c-2.98,0-5.96,0-8.94,0-2.29,0-3.82-1.52-3.82-3.82,0-5.24,0-10.47,0-15.71,0-2.3,1.52-3.82,3.81-3.82,1.28,0,2.57,0,3.88,0-.13.4-.26.78-.4,1.2-1.14,0-2.3,0-3.46,0-1.67,0-2.64.97-2.64,2.65,0,5.22,0,10.45,0,15.67,0,1.65.98,2.63,2.62,2.63,8.63,0,17.26,0,25.89,0,1.65,0,2.62-.98,2.62-2.63,0-2.78,0-5.56,0-8.34v-.37c.4-.05.78-.1,1.18-.15,0,.06.02.13.02.2,0,2.96,0,5.91,0,8.87,0,1.69-1.06,3.07-2.67,3.5-.36.09-.74.13-1.11.13-2.98,0-5.96,0-8.94,0h-.44Zm-3.64,4.79c.8,0,1.59,0,2.39,0,.54,0,1.07.01,1.61,0,.44-.02.73-.32.81-.75.07-.39-.15-.8-.5-.96-.39-.18-.97-.09-1.17.17-.47.61-1.1.93-1.86.94-.82.02-1.64.01-2.47,0-.75-.01-1.4-.3-1.83-.92-.28-.4-.63-.27-.96-.25-.33.01-.57.22-.69.54-.24.63.17,1.22.86,1.23,1.27.01,2.54,0,3.81,0Z"/>
    <path class="cls-1" d="m27.05,13.57c4.24.08,6.68,3.39,6.64,6.72-.04,3.78-3.14,6.71-6.92,6.63-3.54-.07-6.53-3.2-6.46-6.76.07-3.75,3.05-6.67,6.74-6.59Zm5.47,6.66c-.04-.31-.06-.62-.11-.92-.02-.12-.09-.27-.19-.34-.65-.42-1.32-.83-1.99-1.23-.08-.05-.26-.01-.34.05-1.73,1.48-3.96,1.51-5.69.07-.08-.07-.25-.1-.34-.06-.8.33-1.52.8-2.12,1.43-.09.1-.18.25-.18.38-.02.46-.05.93,0,1.38.37,2.82,2.97,4.92,5.82,4.73,2.84-.19,5.12-2.64,5.14-5.49Z"/>
  </g>
</svg>