<?xml version="1.0" encoding="UTF-8"?>
<svg id="Layer_1" data-name="Layer 1" xmlns="http://www.w3.org/2000/svg" viewBox="0 0 60 60">
  <defs>
    <style>
      .cls-1 {
        fill: #222831;
      }

      .cls-2 {
        fill: #00adb5;
        isolation: isolate;
        opacity: .4;
      }
    </style>
  </defs>
  <rect class="cls-2" width="60" height="60" rx="6" ry="6"/>
  <g>
    <path class="cls-1" d="m41.99,35.42c-.07.2-.13.39-.19.58-.15.43-.36.82-.68,1.14-.55.56-1.22.83-2,.86-.15,0-.3-.02-.45-.02-.07-.02-.14-.05-.21-.07-.8-.21-1.39-.67-1.79-1.39-.05-.08-.09-.17-.12-.24-.2-.06-.4.02-.57-.08-.08.01-.15,0-.22-.03-.51-.08-.91-.37-1.31-.67-.06-.06-.11-.13-.17-.19-1.05-1.05-2.09-2.09-3.14-3.14-.07-.07-.15-.13-.22-.2-.06-.08-.12-.16-.18-.23-.61-.78-.78-1.64-.5-2.59.14-.47.41-.87.76-1.21.5-.5.99-1.01,1.49-1.51.68-.63,1.32-1.29,1.96-1.96.21-.15.43-.31.64-.46.1,0,.15-.06.19-.13.12.03.22-.03.32-.06,1.31-.36,2.67.25,3.26,1.45.14.29.23.6.28.98.06-.15.09-.24.12-.34.22-.66.45-1.31.66-1.97.22-.68.64-1.2,1.24-1.57.27-.16.56-.25.84-.34.01-.04.02-.07.02-.09,0-1.63.04-3.26-.02-4.89-.06-1.69-.91-2.93-2.39-3.72-.66-.35-1.38-.46-2.12-.46-4.67,0-9.33,0-14,0-.14,0-.27,0-.41,0-.83.03-1.59.29-2.26.77-1.29.92-1.9,2.19-1.89,3.76,0,8.38,0,16.77,0,25.15,0,.29,0,.57.05.86.02.1.03.2.05.3.02.03.04.06.05.1.31,1.17.99,2.07,2.03,2.69.75.45,1.56.61,2.42.6,4.63,0,9.25,0,13.88,0,.16,0,.32,0,.48,0,1.21-.06,2.23-.56,3.03-1.46.77-.86,1.11-1.88,1.1-3.04-.01-2.28,0-4.55,0-6.83,0-.11.03-.22-.05-.34Zm-16.91-17.79c-.27-.72-.57-1.43-.85-2.14-.02-.06-.05-.11-.05-.18,0,0,0-.02.02-.02,0,0,.02-.02.03-.02,4.13,0,8.26,0,12.39,0,.06,0,.12,0,.22.01-.05.27-.15.46-.23.67-.23.58-.45,1.15-.69,1.73-.42,1.02-1.23,1.57-2.34,1.57-2.04,0-4.08-.02-6.12,0-.96.01-1.96-.54-2.36-1.61Zm9.74,24.69c-.16.47-.59.8-1.1.81-1.07,0-2.14,0-3.21,0h0c-1.04,0-2.09,0-3.13,0-.39,0-.71-.13-.96-.42-.31-.36-.39-.77-.22-1.21.18-.45.53-.71,1.02-.76.07,0,.15,0,.22,0,2.04,0,4.08,0,6.12,0,.34,0,.64.07.9.3.37.33.51.83.36,1.28Z"/>
    <path class="cls-1" d="m43.34,23.84c-.37-.31-.86-.35-1.29-.13-.33.17-.51.45-.62.8-.76,2.31-1.53,4.61-2.3,6.91-.38,1.13-.76,2.26-1.13,3.39-.26.79.31,1.59,1.12,1.59.1,0,.2-.02.29-.04.49-.14.75-.48.9-.95.88-2.67,1.78-5.34,2.67-8,.25-.76.52-1.53.76-2.29.16-.5-.01-.93-.4-1.27Z"/>
    <path class="cls-1" d="m49.76,29.25c-.05-.07-.12-.13-.18-.19-1.1-1.1-2.2-2.2-3.3-3.3-.06-.06-.12-.13-.19-.18-.39-.3-.83-.34-1.26-.14-.43.2-.65.56-.66,1.04,0,.37.13.67.4.93.77.76,1.53,1.53,2.3,2.3.09.09.17.18.27.28-.1.1-.18.19-.27.28-.74.74-1.48,1.48-2.22,2.22-.08.08-.16.16-.23.24-.29.38-.33.8-.14,1.23.19.43.54.67,1.02.69.39.02.7-.13.97-.4,1.11-1.12,2.23-2.24,3.35-3.35.05-.05.11-.11.15-.16.35-.43.35-1.05,0-1.48Z"/>
    <path class="cls-1" d="m34.87,29.7c.72-.72,1.44-1.45,2.17-2.16.23-.22.41-.46.52-.76,0-.05,0-.1,0-.15-.02-.16,0-.32-.05-.48-.27-.82-1.29-1.1-1.94-.51-.4.37-.78.77-1.17,1.16-.77.77-1.53,1.53-2.3,2.3-.24.24-.39.51-.4.85,0,.34.09.64.33.88,1.17,1.17,2.34,2.34,3.51,3.51.04.04.09.09.14.12.39.26.8.28,1.21.08.41-.2.63-.54.66-1.01.02-.4-.15-.72-.43-.99-.77-.76-1.53-1.53-2.3-2.3-.08-.08-.18-.14-.21-.25.06-.12.16-.19.25-.28Z"/>
    <path class="cls-1" d="m42.05,35.31s-.01.02,0,.02c.01.03.03.03.04,0,0,0,0-.02,0-.02,0,0-.01,0-.02,0Z"/>
  </g>
</svg>