<?xml version="1.0" encoding="UTF-8"?>
<svg id="Layer_1" data-name="Layer 1" xmlns="http://www.w3.org/2000/svg" viewBox="0 0 60 60">
  <defs>
    <style>
      .cls-1 {
        fill: #222831;
      }

      .cls-2 {
        fill: #00adb5;
        isolation: isolate;
        opacity: .4;
      }
    </style>
  </defs>
  <rect class="cls-2" width="60" height="60" rx="6" ry="6"/>
  <path class="cls-1" d="m29.02,45.75c-.47-.14-.9-.33-1.22-.73-.82-1.02-.46-2.5.74-3.04.18-.08.25-.16.24-.36,0-3.43,0-6.85,0-10.28,0-.07,0-.14-.01-.23h-1.23c0,.12,0,.24,0,.36,0,2.77,0,5.54,0,8.31,0,.57-.17.74-.73.74-1.22,0-2.44,0-3.66,0-.19,0-.28.04-.36.23-.36.87-1.28,1.35-2.18,1.17-.93-.19-1.59-.99-1.59-1.93,0-.92.64-1.73,1.52-1.92.94-.21,1.85.26,2.25,1.14.05.1.17.23.25.23,1.11.01,2.21,0,3.32,0,.02,0,.04-.01.08-.03v-8.3h-1.23c0,.15,0,.29,0,.43,0,1.04,0,2.07,0,3.11,0,.55-.16.71-.72.71-1.21,0-2.42,0-3.63,0-.21,0-.32.05-.41.26-.38.88-1.29,1.33-2.22,1.14-.88-.19-1.53-1-1.54-1.91,0-.93.62-1.72,1.54-1.93.91-.21,1.84.27,2.24,1.16.04.1.17.22.26.22,1.12.01,2.23,0,3.38,0v-3.21c-.1,0-.21,0-.32,0-1.14,0-2.28.02-3.42,0-2.17-.04-3.87-1.82-3.8-3.97.03-1.06.44-1.97,1.22-2.7.14-.13.17-.23.12-.42-.58-1.86.27-3.8,2.03-4.64.18-.09.25-.17.25-.38-.04-2.31,1.69-4.37,3.93-4.68,2.44-.34,4.62,1.06,5.26,3.38.02.08.05.15.07.22,1.25.21,1.59.39,2.43,1.31,1.49-.76,2.98-.77,4.4.16,1.41.93,2.01,2.3,1.91,3.97.33.05.64.08.95.16,1.82.47,3.08,2.25,2.88,4.06-.23,2.01-1.78,3.48-3.78,3.52-1.24.03-2.48,0-3.75,0v3.21c.09,0,.18,0,.28,0,.99,0,1.99,0,2.98,0,.2,0,.3-.04.39-.24.37-.87,1.28-1.34,2.18-1.16.92.19,1.58,1,1.58,1.93,0,.91-.65,1.72-1.53,1.92-.93.2-1.85-.26-2.24-1.16-.08-.18-.17-.24-.36-.24-1.22,0-2.44,0-3.66,0-.57,0-.72-.16-.72-.73,0-1.06,0-2.11,0-3.17,0-.11,0-.22,0-.35h-1.23v8.32c.1,0,.2.02.29.02.99,0,1.99,0,2.98,0,.2,0,.3-.04.39-.24.38-.89,1.31-1.35,2.24-1.15.88.19,1.52,1,1.52,1.92,0,.94-.65,1.73-1.59,1.93-.89.18-1.82-.3-2.18-1.16-.09-.21-.2-.24-.39-.24-1.22,0-2.44,0-3.66,0-.52,0-.7-.18-.7-.7,0-2.77,0-5.54,0-8.31v-.39h-1.25v.32c0,3.37,0,6.75,0,10.12,0,.17-.01.31.21.41.81.34,1.28,1.12,1.21,1.95-.06.85-.65,1.54-1.51,1.77-.05.01-.09.04-.14.06h-.62Z"/>
</svg>