<?xml version="1.0" encoding="UTF-8"?>
<svg id="Layer_1" data-name="Layer 1" xmlns="http://www.w3.org/2000/svg" viewBox="0 0 60 60">
  <defs>
    <style>
      .cls-1 {
        fill: #222831;
      }

      .cls-2 {
        fill: #00adb5;
        isolation: isolate;
        opacity: .4;
      }
    </style>
  </defs>
  <rect class="cls-2" width="60" height="60" rx="6" ry="6"/>
  <g>
    <path class="cls-1" d="m25.61,16.28c.75-1.12,1.78-1.7,3.11-1.51,1.51.22,2.37,1.18,2.69,2.66,2.18-1.75,4.69-.49,5.32,1.16-.1.04-.19.09-.29.13-.89.35-1.61.92-2.17,1.7-.05.07-.14.16-.14.23,0,.14.02.33.11.39.09.06.28,0,.41-.04.07-.03.11-.14.17-.21,1.61-2.25,5.12-2.37,6.87-.23.02.03.04.07.08.13-.7.1-1.32.34-1.86.76-.07.06-.18.11-.2.18-.03.13-.06.33.01.41.07.08.26.06.4.07.05,0,.1-.07.15-.11.97-.74,2.02-.86,3.13-.4,1.13.48,1.84,1.34,2,2.57.26,2.09-1.23,3.75-3.35,3.77-.9.01-1.81,0-2.71,0-7.05,0-14.09,0-21.14,0-1.36,0-2.41-.55-3.01-1.79-.98-2.04.48-4.36,2.74-4.42.1,0,.2,0,.31,0-.08-.33-.19-.65-.23-.97-.19-1.66,1.4-3,3.01-2.55.2.06.27.13.28.35.04.91.3,1.73.94,2.4.08.08.17.18.26.2.11.02.28-.02.35-.1.06-.08.05-.24.03-.36-.01-.07-.1-.12-.16-.18-1.04-1.06-1.1-2.95-.13-4.08.81-.96,1.93-1.06,2.91-.27.04.03.08.06.12.09Zm3.3,3.05c-1.73.15-3.05.97-3.92,2.48-.11.2-.19.41.06.56.26.15.39-.02.51-.22.75-1.32,1.89-2.03,3.4-2.16.25-.02.55.03.56-.36,0-.24-.17-.32-.6-.3Zm5.75,4.33c-.36.06-.72.12-1.08.19-.23.05-.38.18-.31.44.07.24.25.26.47.2,1.17-.32,2.21-.07,3.1.74.17.16.36.24.53.04.18-.2.08-.37-.09-.53-.74-.68-1.61-1.03-2.62-1.08Zm-16.22,1.66c.05.28.17.39.4.41,1.02.07,2.37-.77,2.76-1.7.08-.18.06-.35-.12-.45-.18-.1-.35-.05-.45.13-.49.88-1.23,1.33-2.24,1.38-.12,0-.24.16-.35.24Zm10.42-.35c.04.32.17.42.39.41.72-.04,1.26-.37,1.61-1,.1-.18.07-.35-.1-.45-.17-.1-.35-.07-.45.11-.25.43-.61.66-1.11.7-.13.01-.25.17-.34.24Z"/>
    <path class="cls-1" d="m23.75,28.62h1.43v4.07h9.51v-4.07h1.45c0,.11.01.2.01.29,0,1.35,0,2.71,0,4.06,0,.78-.4,1.18-1.17,1.18-3.36,0-6.73,0-10.09,0-.76,0-1.16-.4-1.16-1.16,0-1.36,0-2.73,0-4.09,0-.09,0-.18.02-.29Z"/>
    <path class="cls-1" d="m25.85,32.03v-3.39h8.18v3.39h-8.18Z"/>
    <path class="cls-1" d="m32.96,34.83h.64c0,.46,0,.91,0,1.35,0,.95.01,1.91.02,2.86,0,.68.32.99,1,.99,1.92-.01,3.84-.03,5.75-.04.16,0,.25-.05.34-.19.25-.42.71-.6,1.16-.47.44.13.74.52.75.98,0,.46-.29.86-.73.99-.45.14-.93-.03-1.17-.45-.1-.18-.22-.2-.39-.2-1.88.02-3.75.03-5.63.04-1.15,0-1.74-.58-1.74-1.73,0-1.28,0-2.56-.01-3.85,0-.09,0-.18.01-.28Z"/>
    <path class="cls-1" d="m26.13,34.82h.63c0,.11.02.22.02.32,0,1.38,0,2.77,0,4.15,0,1.08-.6,1.67-1.67,1.68-.25,0-.49-.01-.74.02-.47.05-.76.37-.77.84,0,.4-.01.8,0,1.2,0,.11.08.24.17.3.42.29.61.74.47,1.2-.14.44-.53.73-.99.73-.45,0-.86-.31-.98-.74-.13-.46.06-.9.49-1.19.08-.05.16-.18.16-.28.02-.4,0-.8,0-1.2.01-.88.64-1.51,1.52-1.52.22,0,.43,0,.65,0,.68,0,1.01-.32,1.01-.99,0-1.39,0-2.79.01-4.18,0-.1,0-.2,0-.33Z"/>
    <path class="cls-1" d="m23.08,32.12v.6s-.04.04-.06.04c-.62-.07-1.08.22-1.47.67-.25.29-.55.55-.82.83-.36.37-.8.55-1.32.55-.85,0-1.7,0-2.55,0-.16,0-.27.03-.37.19-.24.42-.72.6-1.17.47-.43-.12-.74-.54-.74-.99,0-.45.3-.85.74-.99.44-.13.92.04,1.17.46.09.16.18.21.36.21.83,0,1.66,0,2.49,0,.38,0,.7-.12.96-.4.34-.35.71-.68,1.04-1.04.47-.5,1.05-.64,1.73-.59Z"/>
    <path class="cls-1" d="m36.82,29.78v-.61c.13,0,.25,0,.37,0,.86,0,1.72,0,2.58,0,.48,0,.87.17,1.21.51.9.9.97.92,2.26.8.1,0,.2-.14.27-.23.29-.41.82-.58,1.28-.38.45.2.7.69.59,1.16-.11.48-.56.84-1.06.8-.36-.02-.65-.19-.83-.51-.08-.15-.18-.2-.34-.19-.32.01-.64,0-.95,0-.46,0-.85-.17-1.18-.5-.89-.89-.65-.81-1.98-.82-.72,0-1.44,0-2.15,0-.02,0-.04-.02-.07-.03Z"/>
    <path class="cls-1" d="m36.82,32.77v-.67c.38,0,.75,0,1.11,0,.74,0,1.48,0,2.21,0,.79,0,1.26.47,1.27,1.26,0,.5,0,1,0,1.51,0,.56.15.72.71.72.37,0,.74,0,1.11,0,.23,0,.38.08.38.34,0,.24-.16.31-.37.31-.44,0-.88,0-1.32,0-.66-.02-1.14-.49-1.15-1.15,0-.53,0-1.07,0-1.6,0-.54-.16-.7-.69-.7-1.08,0-2.15,0-3.26,0Z"/>
    <path class="cls-1" d="m24.72,34.82h.7c-.05.49-.03.99-.15,1.45-.16.6-.73.98-1.37.99-.47,0-.94,0-1.41.01-.1,0-.24.08-.3.17-.28.42-.73.61-1.19.48-.43-.12-.74-.54-.74-.99,0-.45.3-.85.74-.99.46-.14.9.05,1.19.47.06.09.2.17.3.17.45.02.9.01,1.35,0,.55-.01.87-.34.88-.89,0-.29,0-.57,0-.89Z"/>
    <path class="cls-1" d="m34.52,34.82h.66c0,.53,0,1.05,0,1.57,0,.6.14.74.74.74.48,0,.96,0,1.44,0,.45,0,.63-.19.64-.64,0-.2,0-.41,0-.61,0-.23.08-.39.33-.39.23,0,.32.16.32.37,0,.29,0,.57,0,.86-.03.57-.48,1.03-1.05,1.05-.66.02-1.33.02-2,0-.57-.02-1.02-.46-1.06-1.04-.04-.62,0-1.24,0-1.9Z"/>
    <path class="cls-1" d="m23.07,30.71v.63c-.1,0-.19.02-.28.02-2,0-4,0-5.99,0-.12,0-.25-.01-.35-.07-.2-.13-.16-.46.07-.55.08-.03.18-.04.27-.04,2.02,0,4.04,0,6.06,0,.07,0,.14.01.23.02Z"/>
    <path class="cls-1" d="m29.59,34.82h.61c0,.11.02.21.02.3,0,1.46,0,2.93,0,4.39,0,.09.02.21-.02.27-.08.1-.2.23-.31.22-.1,0-.21-.14-.3-.23-.03-.03-.01-.12-.01-.18,0-1.52,0-3.03,0-4.55,0-.07,0-.14.02-.23Z"/>
    <path class="cls-1" d="m23.05,29.18v.63c-.08,0-.15.02-.21.02-1.3,0-2.6,0-3.91,0-.13,0-.29-.05-.38-.14-.06-.06-.07-.26-.02-.33.06-.09.21-.16.33-.16.67-.02,1.33,0,2,0,.72,0,1.43,0,2.19,0Z"/>
    <path class="cls-1" d="m27.61,34.82h.62c.01.07.03.14.03.21,0,.96,0,1.93,0,2.89,0,.02,0,.04,0,.06,0,.21-.09.37-.32.37-.24,0-.34-.15-.34-.38,0-.65,0-1.29,0-1.94,0-.4,0-.79,0-1.21Z"/>
    <path class="cls-1" d="m31.54,34.83h.64c0,.23,0,.45,0,.67,0,.82,0,1.64,0,2.46,0,.24-.09.42-.35.39-.11-.01-.27-.17-.28-.26-.02-1.08-.01-2.16-.01-3.26Z"/>
    <path class="cls-1" d="m36.82,31.35v-.66c.31,0,.6,0,.89,0,.35,0,.7,0,1.05,0,.21,0,.36.1.36.33,0,.23-.14.33-.36.33-.64,0-1.27,0-1.94,0Z"/>
  </g>
</svg>