<?xml version="1.0" encoding="UTF-8"?>
<svg id="Layer_1" data-name="Layer 1" xmlns="http://www.w3.org/2000/svg" viewBox="0 0 60 60">
  <defs>
    <style>
      .cls-1 {
        fill: #222831;
      }

      .cls-2 {
        fill: #00adb5;
        isolation: isolate;
        opacity: .4;
      }
    </style>
  </defs>
  <rect class="cls-2" width="60" height="60" rx="6" ry="6"/>
  <g>
    <path class="cls-1" d="m31.96,45.85h-3.94c-.04-.27-.07-.55-.11-.82-.14-.88-.65-1.46-1.5-1.68-.86-.22-1.57.07-2.12.76-.16.2-.31.4-.47.62-1.14-.66-2.27-1.31-3.4-1.97.11-.27.22-.51.31-.76.31-.82.18-1.57-.44-2.18-.62-.63-1.38-.76-2.21-.44-.25.09-.49.2-.75.31-.66-1.14-1.31-2.27-1.96-3.4.25-.2.5-.37.72-.56.63-.56.87-1.27.64-2.08-.23-.81-.79-1.3-1.62-1.45-.28-.05-.56-.08-.85-.13v-3.92c.29-.04.56-.08.83-.12.85-.14,1.42-.64,1.65-1.46.23-.84-.03-1.56-.7-2.12-.21-.18-.43-.34-.67-.52.66-1.14,1.31-2.26,1.96-3.4.27.11.51.22.76.31.82.31,1.57.18,2.19-.43.63-.62.76-1.38.45-2.21-.09-.25-.2-.49-.31-.75,1.14-.66,2.26-1.31,3.4-1.96.19.24.35.48.54.69.56.65,1.27.9,2.1.67.81-.23,1.3-.78,1.45-1.62.05-.28.08-.56.12-.86h3.93c.04.28.07.55.12.83.14.87.65,1.44,1.49,1.66.84.22,1.56-.05,2.11-.72.17-.2.32-.42.5-.65,1.14.66,2.27,1.31,3.41,1.97-.11.26-.2.48-.29.69-.34.83-.22,1.59.4,2.25.58.62,1.43.77,2.27.43.23-.09.47-.19.71-.29.66,1.15,1.31,2.27,1.96,3.4-.24.18-.46.34-.66.51-.67.56-.93,1.27-.7,2.11.23.82.79,1.32,1.64,1.47.28.05.57.08.85.11v3.94c-.27.04-.55.07-.82.11-.88.14-1.46.65-1.68,1.5-.22.86.07,1.57.76,2.12.2.16.4.31.62.47-.66,1.14-1.31,2.27-1.97,3.4-.27-.11-.51-.22-.76-.31-.83-.32-1.58-.18-2.21.45-.61.62-.74,1.37-.43,2.18.09.25.2.49.31.76-1.14.66-2.26,1.31-3.4,1.97-.18-.23-.33-.46-.51-.67-.56-.67-1.27-.93-2.12-.7-.82.23-1.32.79-1.47,1.64-.05.28-.08.57-.11.85Zm8.88-15.76c-.01-6-4.89-10.87-10.87-10.84-6,.02-10.82,4.85-10.83,10.84,0,5.99,4.86,10.86,10.85,10.86,5.99,0,10.86-4.87,10.85-10.86Z"/>
    <path class="cls-1" d="m20.99,30.08c.01-4.98,4.04-9,9.01-8.99,4.98,0,9.03,4.06,9,9.03-.03,4.98-4.07,9-9.02,8.98-4.98-.02-9-4.05-8.98-9.02Zm7.93,4.5c1.28-2.74,2.55-5.47,3.83-8.21-.58-.27-1.12-.52-1.67-.78-1.28,2.75-2.55,5.48-3.83,8.21.58.27,1.12.52,1.67.78Zm-1.54-6.69c-.43-.43-.85-.86-1.24-1.24-1.15,1.15-2.32,2.32-3.46,3.46,1.14,1.14,2.3,2.3,3.45,3.45.4-.41.83-.83,1.29-1.3-.71-.71-1.45-1.45-2.21-2.2.73-.73,1.47-1.46,2.17-2.16Zm9.96,2.23c-1.17-1.17-2.34-2.34-3.5-3.5-.39.39-.81.81-1.26,1.26.73.72,1.47,1.46,2.24,2.23-.76.75-1.5,1.48-2.19,2.16.45.44.87.87,1.29,1.28,1.13-1.13,2.29-2.29,3.42-3.43Z"/>
  </g>
</svg>