<?xml version="1.0" encoding="UTF-8"?>
<svg id="Layer_1" data-name="Layer 1" xmlns="http://www.w3.org/2000/svg" viewBox="0 0 58.5 20">
  <defs>
    <style>
      .cls-1 {
        fill: #5468ff;
      }

      .cls-1, .cls-2 {
        fill-rule: evenodd;
      }

      .cls-2 {
        fill: #fff;
      }
    </style>
  </defs>
  <path class="cls-2" d="m4.68.84h14.46c1.42,0,2.59,1.08,2.59,2.41v13.5c0,1.33-1.15,2.41-2.59,2.41H4.68c-1.42,0-2.59-1.08-2.59-2.41V3.25c0-1.33,1.16-2.41,2.59-2.41"/>
  <path class="cls-1" d="m13.96,4.93v-.63c0-.44-.38-.79-.85-.79h-1.99c-.47,0-.85.36-.85.79v.64c0,.07.07.12.15.1.56-.16,1.14-.23,1.73-.23.57,0,1.13.07,1.67.21.07.02.14-.03.14-.1m-5.45.82l-.34-.32c-.16-.15-.38-.23-.6-.23-.22,0-.44.08-.6.23l-.41.38c-.16.15-.25.35-.25.56s.09.41.25.56l.33.31c.05.05.13.04.18-.01.2-.25.41-.49.65-.71.24-.22.5-.43.77-.61.06-.03.07-.11.02-.16m3.63,1.99v2.72c0,.08.09.13.17.09l2.59-1.25c.06-.03.08-.09.05-.15-.54-.88-1.53-1.48-2.69-1.52-.06,0-.12.04-.12.1m0,6.54c-2.16,0-3.91-1.63-3.91-3.64s1.75-3.64,3.91-3.64,3.91,1.63,3.91,3.64-1.75,3.64-3.91,3.64m0-8.82c-3.07,0-5.55,2.32-5.55,5.18s2.49,5.17,5.55,5.17,5.55-2.32,5.55-5.18-2.48-5.17-5.55-5.17"/>
  <path class="cls-2" d="m32.88,13.36c-2.23.01-2.23-1.8-2.23-2.09v-6.79s1.36-.22,1.36-.22v6.75c0,.16,0,1.2.87,1.2v1.14h0Zm-5.52-1.12c.42,0,.73-.02.94-.07v-1.38c-.11-.03-.22-.05-.33-.07-.16-.02-.32-.04-.47-.04-.15,0-.3.01-.46.04-.15.02-.29.06-.41.12s-.22.14-.3.25c-.08.11-.11.17-.11.33,0,.31.11.5.31.63s.48.18.82.18h0Zm-.12-4.94c.45,0,.83.06,1.14.17s.55.26.73.47c.18.2.31.47.39.75.08.31.12.62.12.94v3.5l-.95.16c-.47.07-.95.1-1.43.09-.32,0-.65-.03-.96-.1-.29-.07-.54-.17-.75-.32-.21-.15-.37-.35-.48-.58-.12-.24-.17-.58-.17-.92s.07-.55.2-.78.31-.42.53-.56.48-.25.79-.31c.3-.06.62-.09.93-.09.15,0,.31.01.47.03.18.02.36.05.53.09v-.22c0-.16-.02-.31-.06-.44-.04-.14-.1-.26-.2-.37-.09-.11-.22-.19-.37-.25-.19-.07-.38-.11-.58-.1-.31,0-.6.04-.86.08s-.48.1-.64.16l-.16-1.11c.17-.06.42-.12.75-.18.33-.06.68-.09,1.06-.09h0Zm26.89,4.89c.42,0,.73-.02.94-.07v-1.38c-.11-.03-.22-.05-.33-.07-.16-.02-.32-.04-.47-.04-.15,0-.31.01-.46.04-.15.02-.29.06-.42.12-.12.06-.22.14-.3.25-.08.09-.12.21-.11.33,0,.31.11.5.31.63.21.13.48.18.82.18h0Zm-.12-4.94c.45,0,.83.06,1.14.17s.55.26.73.47.31.47.39.75c.08.31.12.62.12.94v3.5l-.95.16c-.47.07-.95.1-1.43.09-.35,0-.68-.04-.96-.1-.27-.06-.52-.17-.75-.32-.21-.15-.37-.35-.48-.58-.12-.24-.17-.58-.17-.92,0-.27.06-.54.2-.78.13-.23.31-.42.53-.56.23-.15.48-.25.79-.31.3-.06.62-.09.93-.09.15,0,.31.01.47.03s.34.05.52.09v-.22c0-.15-.02-.3-.06-.45-.04-.14-.1-.26-.2-.37-.09-.11-.22-.19-.37-.25-.19-.07-.38-.11-.58-.1-.31,0-.6.04-.86.08s-.48.1-.64.16l-.16-1.12c.17-.06.42-.12.75-.18.35-.06.7-.09,1.06-.09h0Zm-4.09-.65c.46,0,.83-.37.83-.82s-.37-.82-.83-.82-.83.37-.83.82c0,.46.37.83.83.82Zm.68,6.73h-1.37v-5.86l1.37-.22v6.08h0Zm-2.4,0c-2.23.01-2.23-1.8-2.23-2.09v-6.79s1.36-.22,1.36-.22v6.75c0,.16,0,1.2.87,1.2v1.14Zm-4.43-3c0-.59-.13-1.08-.38-1.41-.25-.34-.6-.51-1.05-.51s-.8.17-1.05.51-.37.83-.37,1.41.13.99.38,1.34c.25.35.6.52,1.05.52s.8-.17,1.05-.52c.25-.35.38-.74.38-1.34Zm1.39,0c0,.4-.06.81-.2,1.19-.14.38-.33.7-.57.97s-.54.47-.89.63c-.37.14-.76.22-1.15.23-.27,0-.8-.08-1.15-.23s-.64-.35-.89-.63-.44-.59-.58-.97-.21-.73-.21-1.19.06-.9.2-1.28c.13-.36.33-.68.59-.96.25-.27.55-.48.89-.62.35-.15.72-.22,1.14-.22s.79.07,1.14.22c.34.14.64.35.89.62.25.28.45.61.58.96.15.38.22.82.22,1.28h0Zm-10.25,0c0,.58.13,1.2.38,1.47s.57.4.97.4c.21,0,.41-.03.61-.09.17-.05.32-.12.47-.21v-3.38c-.3-.06-.6-.1-.9-.11-.49-.01-.87.19-1.13.51s-.39.89-.39,1.41h0Zm3.79,2.69c0,.93-.24,1.61-.71,2.04s-1.2.65-2.19.65c-.57-.02-1.14-.08-1.7-.2l.22-1.08c.5.1,1.15.13,1.5.13.55,0,.94-.11,1.17-.33s.35-.55.35-.99v-.22c-.17.08-.35.15-.53.2-.22.07-.47.1-.76.1-.38,0-.72-.06-1.03-.18-.3-.11-.57-.29-.8-.52-.22-.23-.39-.52-.52-.86s-.18-.96-.18-1.41c0-.42.07-.96.2-1.31.12-.34.32-.66.57-.91.25-.25.56-.45.92-.59.39-.15.81-.23,1.24-.23.44,0,.85.06,1.25.12l1.01.21v5.39h0Z"/>
</svg>