<?xml version="1.0" encoding="UTF-8"?>
<svg id="Layer_1" data-name="Layer 1" xmlns="http://www.w3.org/2000/svg" viewBox="0 0 122.35 20">
  <defs>
    <style>
      .cls-1 {
        fill: #fff;
      }
    </style>
  </defs>
  <path class="cls-1" d="m76.6,17.24s2.64.72,6,.72c3.58,0,5.25-.38,5.25-.38v-2.67s-1.79.35-4.3.35c-2.17,0-3.52-.28-3.52-.28v-3.77h6.79v-2.64h-6.79v-3.58s1.32-.25,3.3-.25c2.26,0,4.27.35,4.27.35v-2.67s-1.79-.38-4.65-.38c-3.83,0-6.35.69-6.35.69M28.03,11.21c-.09.22-.19.63-.25.88-.06-.25-.19-.66-.28-.88l-2.98-7.73c-.53-1.29-1.32-1.45-2.8-1.45-.5,0-1.54.06-1.54.06l-1.54,15.64h3.42l.75-10.49,3.27,7.95c.22.63.72.88,1.7.88s1.45-.25,1.7-.88l3.27-7.95.75,10.49h3.42l-1.57-15.64s-1.04-.06-1.54-.06c-1.45,0-2.26.16-2.76,1.45l-3.02,7.73Zm-17.15,3.2c-.75.28-2.51.85-3.83.85-1.41,0-2.48-.47-2.48-2.04,0-1.35.75-2.1,2.7-2.17l3.61-.16v3.52Zm-2.04-12.38c-3.08,0-5.47.75-6.38,1.23l.72,2.54s2.36-.82,4.65-.82c1.98,0,2.98.53,2.98,2.48v1.13h-2.98c-5.06,0-6.57,2.29-6.57,4.87,0,3.42,2.64,4.49,5.06,4.49,2.83,0,4.46-1.16,4.65-1.16.16,0,.72.63,3.3.63V6.56c0-3.24-2.01-4.52-5.43-4.52Zm41.06,12.38c-.72.28-2.48.85-3.8.85-1.41,0-2.48-.47-2.48-2.04,0-1.35.75-2.1,2.7-2.17l3.58-.16v3.52Zm-2.01-12.38c-3.08,0-5.47.75-6.38,1.23l.72,2.54s2.36-.82,4.65-.82c1.98,0,2.98.53,2.98,2.48v1.13h-2.98c-5.06,0-6.57,2.29-6.57,4.87,0,3.42,2.64,4.49,5.06,4.49,2.8,0,4.46-1.16,4.65-1.16.16,0,.72.63,3.3.63V6.56c0-3.24-2.01-4.52-5.43-4.52Zm54.29,11.81c-.82.41-2.58,1.07-4.21,1.07-2.36,0-2.73-1.07-2.73-3.49V2.16h-.5c-.79,0-2.51.13-2.92.22v9.49c0,4.15,1.01,6.09,5.21,6.09,3.2,0,5.09-1.23,5.21-1.23.03,0,1.16.69,3.36.69V2.38c-.25-.03-1.88-.22-2.73-.22h-.69v11.69Zm7.48,3.58s2.14.53,5.09.53,6.35-.94,6.35-4.74c0-2.48-1.82-3.55-4.81-4.62-1.63-.6-2.98-1.13-2.98-2.26,0-.53.38-1.57,2.45-1.57,1.92,0,3.9.91,3.9.91l.85-2.54c-.57-.31-2.45-1.1-5.06-1.1-2.83,0-5.59,1.51-5.59,4.52s2.83,4.08,5.03,4.81c1.51.5,2.8,1.04,2.8,2.04s-.53,1.82-3.08,1.82c-2.1,0-4.3-.47-4.3-.47l-.63,2.67ZM61.74,4.99c.53-.09,1.63-.25,2.7-.25,2.48,0,4.43,1.38,4.43,5.15s-.94,5.37-4.74,5.37c-1.19,0-2.39-.16-2.39-.16V4.99Zm2.86-2.95c-1.95,0-4.65.35-6.31.94v14.51c1.38.31,3.96.47,5.75.47,6.09,0,8.48-2.39,8.48-8.07,0-4.9-3.02-7.85-7.92-7.85Z"/>
</svg>