<?xml version="1.0" encoding="UTF-8"?>
<svg id="Layer_1" data-name="Layer 1" xmlns="http://www.w3.org/2000/svg" viewBox="0 0 65.05 20">
  <defs>
    <style>
      .cls-1 {
        fill: none;
      }

      .cls-2 {
        fill: #fff;
      }
    </style>
  </defs>
  <g>
    <path class="cls-2" d="m11.45,6.03h-1.88l-2.71,7.04h1.7l.44-1.2h2.56l-.46-1.31h-1.69l1.1-3.03,1.95,5.54h1.7l-2.71-7.04Zm28.53,7.04v-7.04h1.51v5.72h2.97v1.32h-4.48Zm8.69,0v-7.04h1.51v5.72h2.97v1.32h-4.49Zm-17.05-5.78c1.25,0,2.26,1.01,2.26,2.26s-1.01,2.26-2.26,2.26-2.26-1.01-2.26-2.26,1.02-2.26,2.26-2.26m0-1.37c-2.01,0-3.64,1.63-3.64,3.64s1.63,3.64,3.64,3.64,3.64-1.63,3.64-3.64-1.63-3.64-3.64-3.64Zm28.47,1.37c1.25,0,2.26,1.01,2.26,2.26s-1.01,2.26-2.26,2.26-2.26-1.01-2.26-2.26,1.01-2.26,2.26-2.26m0-1.37c-2.01,0-3.64,1.63-3.64,3.64s1.63,3.64,3.64,3.64,3.64-1.63,3.64-3.64-1.63-3.64-3.64-3.64Zm-38.26.12h-3.28v7.04h1.5v-2.43h1.78c1.25,0,2.26-1.06,2.26-2.31s-1.01-2.3-2.26-2.3h0Zm0,3.24h-1.78v-1.86h1.78c.49,0,.89.44.89.93s-.4.93-.89.93h0Z"/>
    <path class="cls-2" d="m17.26,15.2c-.13,0-.25.06-.32.16,0,0-.34.39-.52.57-.77.77-1.67,1.37-2.66,1.8-1.04.44-2.13.66-3.27.66s-2.23-.22-3.27-.66c-1-.42-1.9-1.03-2.66-1.8-.77-.77-1.37-1.67-1.8-2.66-.44-1.04-.66-2.13-.66-3.27s.22-2.23.66-3.27c.42-1,1.02-1.9,1.79-2.66.77-.77,1.67-1.37,2.66-1.8,1.04-.44,2.13-.66,3.27-.66s2.23.22,3.27.66c.73.31,1.4.71,2.01,1.2-.03.09-.05.2-.05.31,0,.53.42.95.95.95s.95-.42.95-.95-.42-.95-.95-.95c-.13,0-.25.02-.36.08-1.58-1.3-3.6-2.08-5.81-2.08-5.06,0-9.16,4.1-9.16,9.17s4.1,9.17,9.17,9.17c2.83,0,5.36-1.28,7.04-3.31.07-.07.12-.17.12-.27,0-.22-.19-.39-.39-.39h0Z"/>
  </g>
  <path class="cls-1" d="m69.31,22.54H-4.26V-2.54h73.58v25.09Z"/>
</svg>