<?xml version="1.0" encoding="UTF-8"?>
<svg id="Layer_1" data-name="Layer 1" xmlns="http://www.w3.org/2000/svg" viewBox="0 0 81.23 20">
  <defs>
    <style>
      .cls-1 {
        fill: #fff;
      }
    </style>
  </defs>
  <path class="cls-1" d="m13.69,12.02c0,.32-.26.58-.58.58h-4.04c-.32,0-.58-.26-.58-.58v-4.04c0-.32.26-.58.58-.58h4.04c.32,0,.58.26.58.58v4.04Zm3.46,3.03c0,.56-.45,1.01-1.01,1.01H6.04c-.56,0-1.01-.45-1.01-1.01V4.95c0-.56.45-1.01,1.01-1.01h10.11c.56,0,1.01.45,1.01,1.01v10.11Zm.29-14.58H4.74C2.99.47,1.56,1.9,1.56,3.65v12.71c0,1.75,1.43,3.18,3.18,3.18h12.71c1.75,0,3.18-1.43,3.18-3.18V3.65c0-1.75-1.43-3.18-3.18-3.18"/>
  <path class="cls-1" d="m29.44,16.26c-1.13,0-2.22-.44-2.98-1.2-.68-.68-1.06-1.57-1.06-2.49h1.14c0,.62.26,1.22.73,1.68.55.55,1.34.87,2.17.87h0c1.6,0,2.89-1.12,2.89-2.49,0-1.03-.57-1.85-3.34-2.49-1.13-.26-1.89-.61-2.4-1.1-.54-.52-.8-1.22-.8-2.13,0-1.79,1.61-3.25,3.58-3.25.95,0,1.84.33,2.51.92.7.61,1.08,1.44,1.08,2.32h-1.14c0-1.16-1.1-2.09-2.45-2.09s-2.44.97-2.44,2.11c0,1.04.36,1.66,2.31,2.11,2.09.48,4.22,1.29,4.23,3.6,0,.98-.43,1.91-1.2,2.59-.76.67-1.77,1.04-2.84,1.04h-.01Z"/>
  <path class="cls-1" d="m39.52,8.15c-2.06,0-3.54,1.53-3.54,3.57s1.52,3.51,3.54,3.51,3.46-1.6,3.46-3.53-1.5-3.56-3.46-3.56m3.4,11.37v-5.01h-.03c-.74,1.14-2.02,1.72-3.37,1.72-2.59,0-4.65-1.95-4.65-4.55s2.1-4.52,4.65-4.52c1.34,0,2.62.59,3.37,1.74h.03v-1.52h1.11v12.14h-1.11Z"/>
  <path class="cls-1" d="m59.9,8.15c-2.05,0-3.54,1.53-3.54,3.57s1.52,3.51,3.54,3.51,3.46-1.6,3.46-3.53-1.5-3.56-3.46-3.56m3.4,7.87v-1.52h-.03c-.76,1.14-2.02,1.72-3.37,1.72-2.59,0-4.65-1.94-4.65-4.55s2.1-4.52,4.65-4.52c1.36,0,2.62.57,3.37,1.74h.03v-1.52h1.11v8.65h-1.11Z"/>
  <path class="cls-1" d="m67.72,10.96v5.06h-1.11V7.37h1.11v1.25h.03c.48-1.11,1.31-1.39,2.43-1.47v1.17c-1.52.13-2.46,1.09-2.46,2.64"/>
  <path class="cls-1" d="m75.14,8.15c-1.72,0-3.1,1.26-3.37,2.96h6.75c-.28-1.69-1.64-2.96-3.38-2.96m4.5,3.95h-7.87c.08,1.71,1.66,3.13,3.35,3.13,1.33,0,2.62-.76,3.1-2.04h1.17c-.63,1.8-2.34,3.03-4.25,3.03-2.5,0-4.5-2.04-4.5-4.52s2.01-4.55,4.49-4.55,4.54,2.13,4.54,4.63c0,.11-.02.2-.02.32"/>
  <path class="cls-1" d="m52.61,16.03v-1.35h-.03c-.51,1.07-1.64,1.56-2.78,1.56s-2.27-.4-2.99-1.3c-.62-.78-.76-1.83-.76-2.79v-4.8h1.11v4.78c0,1.79.65,3.11,2.64,3.11.73,0,1.3-.19,1.84-.7.76-.73.9-1.59.9-2.6v-4.59h1.11v8.69h-1.05Z"/>
</svg>