<?xml version="1.0" encoding="UTF-8"?>
<svg id="Layer_1" data-name="Layer 1" xmlns="http://www.w3.org/2000/svg" viewBox="0 0 47.71 20">
  <defs>
    <style>
      .cls-1 {
        fill: #fff;
      }
    </style>
  </defs>
  <path class="cls-1" d="m4.09,7.93c0-.5.41-.69,1.09-.69.97,0,2.2.29,3.17.82v-3c-1.06-.42-2.11-.59-3.17-.59-2.59,0-4.32,1.35-4.32,3.62,0,3.53,4.85,2.96,4.85,4.48,0,.59-.51.78-1.23.78-1.06,0-2.41-.43-3.49-1.02v3.04c1.19.51,2.39.73,3.49.73,2.66,0,4.48-1.32,4.48-3.6-.01-3.81-4.88-3.13-4.88-4.56ZM12.73,1.91l-3.12.66v10.23c-.01,1.89,1.41,3.28,3.3,3.28,1.05,0,1.81-.19,2.24-.42v-2.59c-.41.17-2.43.75-2.43-1.14v-4.54h2.43v-2.72h-2.43V1.91Zm6.4,3.72l-.2-.95h-2.76v11.18h3.19v-7.58c.75-.98,2.03-.8,2.43-.66v-2.94c-.41-.15-1.9-.43-2.66.95Zm3.44-.95h3.21v11.18h-3.21V4.69Zm0-.97l3.21-.69V.43l-3.21.68v2.61Zm9.88.75c-1.25,0-2.06.59-2.5,1l-.17-.79h-2.81v14.9l3.19-.68v-3.62c.47.33,1.15.8,2.27.8,2.29,0,4.37-1.84,4.37-5.89-.01-3.7-2.12-5.72-4.36-5.72Zm-.77,8.8c-.75,0-1.2-.27-1.51-.6v-4.74c.32-.37.78-.63,1.51-.63,1.16,0,1.97,1.3,1.97,2.98s-.79,2.99-1.97,2.99Zm15.19-2.95c0-3.27-1.58-5.85-4.61-5.85s-4.88,2.58-4.88,5.83c0,3.85,2.17,5.79,5.29,5.79,1.52,0,2.67-.34,3.54-.83v-2.56c-.87.43-1.87.7-3.13.7s-2.34-.43-2.48-1.94h6.25c0-.17.03-.83.03-1.14Zm-6.31-1.21c0-1.44.88-2.04,1.69-2.04s1.61.6,1.61,2.04h-3.3Z"/>
</svg>