<?xml version="1.0" encoding="UTF-8"?>
<svg id="Layer_1" data-name="Layer 1" xmlns="http://www.w3.org/2000/svg" viewBox="0 0 200 200">
  <defs>
    <style>
      .cls-1 {
        fill: #222831;
      }

      .cls-2 {
        fill: #00adb5;
        opacity: .4;
      }
    </style>
  </defs>
  <circle class="cls-2" cx="100" cy="100" r="94.34"/>
  <path class="cls-1" d="m97,159.09c-2.3-.38-4.64-.64-6.91-1.17-17.48-4.09-30.63-18.24-33.42-35.95-.32-2.04-.41-4.13-.5-6.2-.09-1.97.8-2.83,2.76-2.84,3.27,0,6.54,0,9.81,0,.38,0,.75,0,1.26,0v-1.32c0-4.96,0-9.92,0-14.89.02-6.95,4.99-11.93,11.92-11.95,3.31-.01,6.62,0,9.92,0,.38,0,.75,0,1.24,0,0-1.21.04-2.32-.03-3.42-.01-.26-.3-.6-.55-.74-5.88-3.36-8.71-8.44-8.66-15.19.04-4.92,0-9.85,0-14.77,0-5.78,3.93-9.72,9.69-9.73,7.04,0,14.08,0,21.12,0,4.44,0,7.84,2.92,8.38,7.15.52,4.07-2.15,7.73-6.44,8.83-.11.03-.21.09-.44.19,0,2.25.05,4.55-.02,6.84-.06,1.95-.04,3.95-.42,5.84-.95,4.7-3.69,8.22-7.84,10.59-.74.42-1.06.84-.98,1.69.08.84.02,1.69.02,2.72h1.25c3.19,0,6.38,0,9.58,0,7.39,0,12.25,4.89,12.25,12.31,0,5.15,0,10.31.01,15.46,0,.07.03.15.08.39.37,0,.77,0,1.18,0,3.19,0,6.38,0,9.58,0,2.27,0,3.04.78,2.99,3.08-.22,9.43-3.07,18-8.8,25.5-7.82,10.24-18.2,16.05-31.05,17.38-.26.03-.51.13-.76.2h-6.23Zm14.35-102.01c-4.79,0-9.6-.01-14.4.02-.37,0-.81.22-1.08.48-2.33,2.29-4.64,4.6-6.93,6.93-.24.25-.44.64-.47.98-.45,6.16,4.07,11.54,10.32,12.31,5.9.73,11.77-3.55,12.48-9.58.43-3.62.08-7.34.08-11.14Zm-43.15,81.12c3.71-1.46,7.25-2.85,10.58-4.16-.71-5.5-1.41-10.95-2.11-16.42h-15.82c.5,7.65,2.99,14.5,7.36,20.58Zm63.6,0c4.37-6.05,6.86-12.91,7.36-20.56h-15.82c-.72,5.57-1.43,11.03-2.12,16.39,3.42,1.35,6.94,2.74,10.58,4.17Zm-50.23-20.61c.21,5.28.77,10.39,2.03,15.25,4.77-.55,9.4-1.08,14-1.6v-13.64h-16.04Zm36.87.05h-16.05v13.59c4.7.53,9.3,1.05,14.02,1.59,1.24-4.87,1.81-9.95,2.03-15.18Zm-29.94-59.15c1.74-1.77,3.24-3.25,4.69-4.79.82-.88,1.74-1.25,2.95-1.24,6.23.04,12.46.03,18.69.01,2.12,0,3.67-1.52,3.64-3.5-.03-1.93-1.55-3.41-3.61-3.41-7.23-.02-14.46-.02-21.68,0-2.42,0-4.48,1.65-4.62,3.97-.17,2.86-.04,5.73-.04,8.97Zm-3.78,78.83c.99,2.33,1.75,4.33,2.68,6.25,1.55,3.2,3.44,6.19,6.29,8.4,1.15.89,2.49,1.53,3.9,2.39v-18.48c-4.26.48-8.4.94-12.88,1.44Zm17.63,16.95c7.49-3.3,10.12-9.96,12.88-16.97-4.43-.48-8.62-.94-12.88-1.4v18.37Zm-4.65-71.86c0,1.43.01,2.88,0,4.33-.02,1.75-.89,2.63-2.62,2.65-1.29.02-2.58,0-3.89,0,.67,3.92,4.72,6.99,9,6.92,4.11-.06,8.07-3.2,8.62-6.92-1.27,0-2.53,0-3.79,0-1.82-.02-2.69-.87-2.7-2.68-.01-1.45,0-2.9,0-4.31h-4.62Zm-23,21.35v9.09h9.09v-9.09h-9.09Zm50.61,9.13v-9.09h-9.09v9.09h9.09Zm-5.61,25.53c-1.72,5.12-3.88,9.76-7.34,14.07,6.46-2.27,11.76-5.66,16.41-10.61-3.13-1.2-6.02-2.3-9.06-3.46Zm-32.32,13.86c-3.24-4.13-5.35-8.8-7.08-13.85-3.03,1.16-5.95,2.27-9.06,3.46,4.7,4.93,9.97,8.37,16.15,10.39Z"/>
</svg>