<?xml version="1.0" encoding="UTF-8"?>
<svg id="Layer_1" data-name="Layer 1" xmlns="http://www.w3.org/2000/svg" viewBox="0 0 200 200">
  <defs>
    <style>
      .cls-1 {
        fill: #222831;
      }

      .cls-2 {
        fill: #00adb5;
        isolation: isolate;
        opacity: .4;
      }
    </style>
  </defs>
  <circle class="cls-2" cx="100" cy="100" r="94.34"/>
  <g>
    <path class="cls-1" d="m153.34,137.08c-.45,1.79-1,3.51-2.27,4.93-1.47,1.64-3.24,2.93-5.41,3.01-5.02.17-10.04.05-14.83.05.06-3.04.16-6.15.17-9.26.02-7.74,0-15.48.01-23.22,0-2.86-.2-5.68-1.14-8.41-.05-.15-.04-.33-.07-.63,4.44.26,8.9-.64,13.15.93,5.75,2.12,9.16,6.27,10.2,12.33.03.16.12.32.18.47v19.79Z"/>
    <path class="cls-1" d="m99.96,145.23c-7.01,0-14.02,0-21.04,0-2.63,0-3.73-1.1-3.73-3.72,0-10.1-.02-20.2,0-30.3.02-7.52,4.75-13.49,12.03-15.22,1.1-.26,2.26-.37,3.4-.37,6.25-.04,12.5-.06,18.74,0,7.43.06,13.41,4.85,15.07,12.08.28,1.2.36,2.47.36,3.71.03,10.07.02,20.13.01,30.2,0,2.49-1.13,3.63-3.61,3.63-7.08,0-14.16,0-21.24,0Z"/>
    <path class="cls-1" d="m100.01,54.77c10.14,0,18.47,8.27,18.52,18.37.05,10.23-8.47,18.79-18.58,18.65-10.28-.14-18.52-8.46-18.47-18.66.05-10.11,8.38-18.37,18.53-18.36Z"/>
    <path class="cls-1" d="m69.37,145.23c-2.06,0-4.14,0-6.22,0-2.29,0-4.58.01-6.87,0-5.66-.04-9.6-3.99-9.62-9.67-.02-5.35-.01-10.69,0-16.04.01-9,6.37-15.6,15.38-15.91,2.7-.09,5.4-.01,8.2-.01-.09.38-.17.64-.21.9-.35,2.36-.96,4.72-.99,7.08-.11,9.96-.06,19.93-.03,29.89,0,1.23.23,2.46.36,3.77Z"/>
    <path class="cls-1" d="m53.63,85.89c-.05-7.59,6.17-13.83,13.81-13.85,7.61-.02,13.78,6.07,13.86,13.68.08,7.63-6.16,13.96-13.8,13.99-7.59.03-13.82-6.18-13.88-13.82Z"/>
    <path class="cls-1" d="m146.37,86c-.2,7.73-6.48,13.89-13.98,13.71-7.74-.19-13.85-6.49-13.69-14.1.17-7.73,6.47-13.76,14.17-13.57,7.56.19,13.68,6.53,13.49,13.95Z"/>
  </g>
</svg>