<svg width="35" height="34" viewBox="0 0 35 34" fill="none" xmlns="http://www.w3.org/2000/svg">
<path d="M24.9188 19.2197C25.9 17.3633 26.4294 15.288 26.4294 13.1209C26.4294 9.63389 25.067 6.35152 22.6035 3.88093C17.5071 -1.21552 9.21296 -1.21552 4.11647 3.88093C-0.979984 8.97742 -0.979984 17.2715 4.11647 22.368C6.66473 24.9162 10.0106 26.1868 13.3565 26.1868C15.46 26.1868 17.5565 25.6856 19.4623 24.6833L25.3212 30.5421L30.7777 25.0786L24.9188 19.2197ZM5.11885 21.3657C0.572966 16.8198 0.572966 9.42916 5.11885 4.88327C7.39177 2.61035 10.3706 1.47389 13.3565 1.47389C16.3424 1.47389 19.3282 2.61035 21.6012 4.88327C23.8035 7.0786 25.0177 10.008 25.0177 13.1209C25.0177 16.2409 23.8035 19.1703 21.6012 21.3657C17.0553 25.9115 9.66473 25.9115 5.11885 21.3657ZM33.0436 27.3445L31.7729 26.0739L26.3165 31.5374L27.5871 32.808C28.3353 33.5562 29.3235 33.9374 30.3118 33.9374C31.3 33.9374 32.2883 33.5562 33.0436 32.808C34.5471 31.3044 34.5471 28.848 33.0436 27.3445Z" fill="#353535"/>
</svg>
